<?xml version="1.0" encoding="UTF-8" standalone="no"?>
<!-- Created with Inkscape (http://www.inkscape.org/) -->

<svg
   width="104.05856mm"
   height="120.61685mm"
   viewBox="0 0 104.05856 120.61685"
   version="1.1"
   id="svg1732"
   inkscape:version="1.2.1 (9c6d41e410, 2022-07-14, custom)"
   sodipodi:docname="pipelinev4.svg"
   xmlns:inkscape="http://www.inkscape.org/namespaces/inkscape"
   xmlns:sodipodi="http://sodipodi.sourceforge.net/DTD/sodipodi-0.dtd"
   xmlns="http://www.w3.org/2000/svg"
   xmlns:svg="http://www.w3.org/2000/svg">
  <sodipodi:namedview
     id="namedview1734"
     pagecolor="#ffffff"
     bordercolor="#000000"
     borderopacity="0.25"
     inkscape:showpageshadow="2"
     inkscape:pageopacity="0.0"
     inkscape:pagecheckerboard="0"
     inkscape:deskcolor="#d1d1d1"
     inkscape:document-units="mm"
     showgrid="false"
     inkscape:zoom="1.8079166"
     inkscape:cx="367.8267"
     inkscape:cy="238.94907"
     inkscape:window-width="1920"
     inkscape:window-height="1022"
     inkscape:window-x="0"
     inkscape:window-y="0"
     inkscape:window-maximized="1"
     inkscape:current-layer="layer1" />
  <defs
     id="defs1729">
    <marker
       style="overflow:visible"
       id="TriangleStart"
       refX="0"
       refY="0"
       orient="auto-start-reverse"
       inkscape:stockid="TriangleStart"
       markerWidth="5.3244081"
       markerHeight="6.155385"
       viewBox="0 0 5.3244081 6.1553851"
       inkscape:isstock="true"
       inkscape:collect="always"
       preserveAspectRatio="xMidYMid">
      <path
         transform="scale(0.5)"
         style="fill:context-stroke;fill-rule:evenodd;stroke:context-stroke;stroke-width:1pt"
         d="M 5.77,0 -2.88,5 V -5 Z"
         id="path135" />
    </marker>
    <marker
       style="overflow:visible"
       id="TriangleStart-3"
       refX="0"
       refY="0"
       orient="auto-start-reverse"
       inkscape:stockid="TriangleStart"
       markerWidth="5.3244081"
       markerHeight="6.155385"
       viewBox="0 0 5.3244081 6.1553851"
       inkscape:isstock="true"
       inkscape:collect="always"
       preserveAspectRatio="xMidYMid">
      <path
         transform="scale(0.5)"
         style="fill:context-stroke;fill-rule:evenodd;stroke:context-stroke;stroke-width:1pt"
         d="M 5.77,0 -2.88,5 V -5 Z"
         id="path135-9" />
    </marker>
    <marker
       style="overflow:visible"
       id="marker2869"
       refX="0"
       refY="0"
       orient="auto-start-reverse"
       inkscape:stockid="TriangleStart"
       markerWidth="5.3244081"
       markerHeight="6.155385"
       viewBox="0 0 5.3244081 6.1553851"
       inkscape:isstock="true"
       inkscape:collect="always"
       preserveAspectRatio="xMidYMid">
      <path
         transform="scale(0.5)"
         style="fill:context-stroke;fill-rule:evenodd;stroke:context-stroke;stroke-width:1pt"
         d="M 5.77,0 -2.88,5 V -5 Z"
         id="path2867" />
    </marker>
  </defs>
  <g
     inkscape:label="Layer 1"
     inkscape:groupmode="layer"
     id="layer1"
     transform="translate(-24.352298,-174.52053)">
    <g
       id="use1437"
       style="fill:#aaccee;stroke:#000000"
       transform="matrix(0.25001164,0,0,0.14066786,28.359844,185.87974)">
      <title
         id="title3382">Magnetic Disk (Database)</title>
      <desc
         id="desc3384">A magnetic disk. (ISO)</desc>
      <path
         d="m 35,25 a 65,65 0 0 1 80,0 v 100 a 65,65 0 0 1 -80,0 z"
         style="stroke-width:2"
         id="path3386" />
      <path
         d="M 115,25 A 65,65 0 0 1 35,25"
         style="fill:none;stroke-width:2;stroke-linecap:butt"
         id="path3388" />
      <path
         d="M 115,40 A 65,65 0 0 1 35,40"
         style="fill:none;stroke-width:2;stroke-linecap:butt"
         id="path3390" />
      <path
         d="M 115,55 A 65,65 0 0 1 35,55"
         style="fill:none;stroke-width:2;stroke-linecap:butt"
         id="path3392" />
    </g>
    <g
       id="use1437-5"
       style="fill:#aaccee;stroke:#000000"
       transform="matrix(0.25001164,0,0,0.14066786,75.974247,185.59732)">
      <title
         id="title3396">Magnetic Disk (Database)</title>
      <desc
         id="desc3398">A magnetic disk. (ISO)</desc>
      <path
         d="m 35,25 a 65,65 0 0 1 80,0 v 100 a 65,65 0 0 1 -80,0 z"
         style="stroke-width:2"
         id="path3400" />
      <path
         d="M 115,25 A 65,65 0 0 1 35,25"
         style="fill:none;stroke-width:2;stroke-linecap:butt"
         id="path3402" />
      <path
         d="M 115,40 A 65,65 0 0 1 35,40"
         style="fill:none;stroke-width:2;stroke-linecap:butt"
         id="path3404" />
      <path
         d="M 115,55 A 65,65 0 0 1 35,55"
         style="fill:none;stroke-width:2;stroke-linecap:butt"
         id="path3406" />
    </g>
    <g
       id="use1479"
       style="fill:#aaccee;stroke:#000000"
       transform="matrix(0.25829053,0,0,0.13275897,28.67904,207.59094)">
      <title
         id="title3410">Process</title>
      <desc
         id="desc3412">Any processing function.</desc>
      <rect
         x="15"
         y="35"
         width="120"
         height="80"
         style="stroke-width:2"
         id="rect3414" />
    </g>
    <g
       id="use1479-35"
       style="fill:#aaccee;stroke:#000000"
       transform="matrix(0.25829053,0,0,0.13275897,75.730026,207.5353)">
      <title
         id="title3418">Process</title>
      <desc
         id="desc3420">Any processing function.</desc>
      <rect
         x="15"
         y="35"
         width="120"
         height="80"
         style="stroke-width:2"
         id="rect3422" />
    </g>
    <g
       id="use1479-3"
       style="fill:#aaccee;stroke:#000000"
       transform="matrix(0.26012857,0,0,0.13383936,28.736585,223.34654)">
      <title
         id="title3426">Process</title>
      <desc
         id="desc3428">Any processing function.</desc>
      <rect
         x="15"
         y="35"
         width="120"
         height="80"
         style="stroke-width:2"
         id="rect3430" />
    </g>
    <g
       id="use1479-3-6"
       style="fill:#aaccee;stroke:#000000"
       transform="matrix(0.26012857,0,0,0.13383936,28.189451,254.2942)">
      <title
         id="title3434">Process</title>
      <desc
         id="desc3436">Any processing function.</desc>
      <rect
         x="15"
         y="35"
         width="120"
         height="80"
         style="stroke-width:2"
         id="rect3438" />
    </g>
    <g
       id="use1479-3-6-7"
       style="fill:#aaccee;stroke:#000000"
       transform="matrix(0.26012857,0,0,0.13383936,28.432043,271.61104)">
      <title
         id="title3450">Process</title>
      <desc
         id="desc3452">Any processing function.</desc>
      <rect
         x="15"
         y="35"
         width="120"
         height="80"
         style="stroke-width:2"
         id="rect3454" />
    </g>
    <g
       id="use1561"
       style="fill:#aaccee;stroke:#000000"
       transform="matrix(0.37711662,0,0,0.13923016,18.501233,239.13961)">
      <title
         id="title3458">Merge</title>
      <desc
         id="desc3460">Combine two or more sets of items into one set. (ISO)</desc>
      <path
         d="m 35,35 h 80 l -40,70 z"
         style="stroke-width:2"
         id="path3462" />
    </g>
    <g
       id="use1648"
       style="fill:#aaccee;stroke:#000000"
       transform="matrix(0.14666685,0,0,0.14666685,69.908268,270.65159)">
      <title
         id="title3466">Document</title>
      <desc
         id="desc3468">A document or report</desc>
      <path
         d="M 15,35 H 135 V 95 C 85,90 65,130 15,105 Z"
         style="stroke-width:2"
         id="path3470" />
    </g>
    <g
       id="use1681"
       style="fill:#aaccee;stroke:#000000"
       transform="matrix(0.14793872,0,0,0.14793872,59.783869,169.49061)">
      <title
         id="title3474">Input/Output</title>
      <desc
         id="desc3476">General input/output functions.</desc>
      <path
         d="m 35,35 h 100 l -20,80 H 15 Z"
         style="stroke-width:2"
         id="path3478" />
    </g>
    <path
       style="fill:none;fill-rule:evenodd;stroke:#000000;stroke-width:0.264583px;stroke-linecap:butt;stroke-linejoin:miter;stroke-opacity:1;marker-end:url(#TriangleStart)"
       d="m 71.264514,186.85169 12.770689,9.58934"
       id="path2771"
       inkscape:connector-type="polyline"
       inkscape:connector-curvature="0" />
    <path
       style="display:inline;fill:none;fill-rule:evenodd;stroke:#000000;stroke-width:0.264583px;stroke-linecap:butt;stroke-linejoin:miter;stroke-opacity:1;marker-end:url(#TriangleStart)"
       d="m 70.38546,186.75052 -12.942247,9.57647"
       id="path2773"
       inkscape:connector-type="polyline"
       inkscape:connector-curvature="0" />
    <path
       style="display:inline;fill:none;fill-rule:evenodd;stroke:#000000;stroke-width:0.259916px;stroke-linecap:butt;stroke-linejoin:miter;stroke-opacity:1;marker-end:url(#TriangleStart)"
       d="m 95.285464,205.26462 0.07904,6.08786"
       id="path2777"
       inkscape:connector-type="polyline"
       inkscape:connector-curvature="0" />
    <path
       style="fill:none;fill-rule:evenodd;stroke:#000000;stroke-width:0.258786px;stroke-linecap:butt;stroke-linejoin:miter;stroke-opacity:1;marker-end:url(#TriangleStart)"
       d="m 46.264615,205.63308 -5.37e-4,5.81194"
       id="path2779"
       inkscape:connector-type="polyline"
       inkscape:connector-curvature="0" />
    <path
       style="fill:none;fill-rule:evenodd;stroke:#000000;stroke-width:0.255737px;stroke-linecap:butt;stroke-linejoin:miter;stroke-opacity:1;marker-end:url(#TriangleStart)"
       d="m 46.138851,223.13653 0.02764,4.14976"
       id="path2781"
       inkscape:connector-type="polyline"
       inkscape:connector-curvature="0" />
    <path
       style="display:inline;fill:none;fill-rule:evenodd;stroke:#000000;stroke-width:0.25727px;stroke-linecap:butt;stroke-linejoin:miter;stroke-opacity:1;marker-end:url(#TriangleStart)"
       d="m 46.678272,238.82833 -0.0057,4.65829"
       id="path2783"
       inkscape:connector-type="polyline"
       inkscape:connector-curvature="0" />
    <path
       style="fill:none;fill-rule:evenodd;stroke:#000000;stroke-width:0.253816px;stroke-linecap:butt;stroke-linejoin:miter;stroke-opacity:1;marker-end:url(#TriangleStart)"
       d="m 46.780573,253.94407 0.03224,4.19545"
       id="path2785"
       inkscape:connector-type="polyline"
       inkscape:connector-curvature="0" />
    <path
       style="fill:none;fill-rule:evenodd;stroke:#000000;stroke-width:0.268616px;stroke-linecap:butt;stroke-linejoin:miter;stroke-opacity:1;marker-end:url(#TriangleStart-3)"
       d="m 46.542122,269.37369 0.02654,5.7088"
       id="path2785-4"
       inkscape:connector-type="polyline"
       inkscape:connector-curvature="0" />
    <path
       style="fill:none;fill-rule:evenodd;stroke:#000000;stroke-width:0.261034px;stroke-linecap:butt;stroke-linejoin:miter;stroke-opacity:1;marker-end:url(#TriangleStart)"
       d="m 63.362695,282.03772 7.98657,-0.0396"
       id="path2787"
       inkscape:connector-type="polyline"
       inkscape:connector-curvature="0" />
    <path
       style="display:inline;fill:none;fill-rule:evenodd;stroke:#000000;stroke-width:0.261203px;stroke-linecap:butt;stroke-linejoin:miter;stroke-opacity:1;marker-end:url(#marker2869)"
       d="M 95.012184,222.81846 58.565213,243.58992"
       id="path2791"
       inkscape:connector-type="polyline"
       inkscape:connector-curvature="0" />
    <g
       aria-label="Preprocessing"
       transform="rotate(-90,98.563055,74.407125)"
       id="text2821"
       style="font-size:3.175px;stroke-width:0.264583">
      <path
         d="m -49.048975,2.1006673 h 0.727075 c 0.180975,0 0.32385,-0.053975 0.447675,-0.1651 0.1397,-0.127 0.200025,-0.276225 0.200025,-0.48895 0,-0.434975 -0.257175,-0.67944998 -0.714375,-0.67944998 H -49.34425 V 3.0817423 h 0.295275 z m 0,-0.26035 v -0.8128 h 0.61595 c 0.282575,0 0.45085,0.1524 0.45085,0.4064 0,0.254 -0.168275,0.4064 -0.45085,0.4064 z"
         id="path47806" />
      <path
         d="m -47.296375,1.4180423 v 1.6637 h 0.2667 v -0.8636 c 0.0032,-0.40005 0.168275,-0.57785 0.5334,-0.568325 v -0.269875 c -0.04445,-0.00635 -0.06985,-0.00953 -0.1016,-0.00953 -0.17145,0 -0.301625,0.1016 -0.454025,0.34925 v -0.301625 z"
         id="path47808" />
      <path
         d="m -44.861151,2.3387923 c 0,-0.254 -0.01905,-0.4064 -0.06668,-0.530225 -0.10795,-0.27305 -0.36195,-0.43815 -0.6731,-0.43815 -0.46355,0 -0.762,0.352425 -0.762,0.9017 0,0.549275 0.28575,0.88265 0.75565,0.88265 0.381,0 0.644525,-0.2159 0.7112,-0.57785 h -0.2667 c -0.07303,0.219075 -0.22225,0.333375 -0.434975,0.333375 -0.168275,0 -0.31115,-0.0762 -0.40005,-0.2159 -0.0635,-0.09525 -0.08572,-0.1905 -0.0889,-0.3556 z m -1.2192,-0.2159 c 0.02222,-0.307975 0.20955,-0.508 0.47625,-0.508 0.269875,0 0.4572,0.20955 0.4572,0.508 z"
         id="path47810" />
      <path
         d="m -44.553177,3.7738923 h 0.2667 v -0.866775 c 0.1397,0.17145 0.295275,0.24765 0.511175,0.24765 0.4318,0 0.7112,-0.346075 0.7112,-0.8763 0,-0.5588 -0.27305,-0.90805 -0.714375,-0.90805 -0.225425,0 -0.4064,0.1016 -0.530225,0.29845 v -0.250825 h -0.244475 z m 0.73025,-2.155825 c 0.2921,0 0.4826,0.257175 0.4826,0.65405 0,0.377825 -0.193675,0.635 -0.4826,0.635 -0.282575,0 -0.46355,-0.254 -0.46355,-0.644525 0,-0.390525 0.180975,-0.644525 0.46355,-0.644525 z"
         id="path47812" />
      <path
         d="m -42.740252,1.4180423 v 1.6637 h 0.2667 v -0.8636 c 0.0032,-0.40005 0.168275,-0.57785 0.5334,-0.568325 v -0.269875 c -0.04445,-0.00635 -0.06985,-0.00953 -0.1016,-0.00953 -0.17145,0 -0.301625,0.1016 -0.454025,0.34925 v -0.301625 z"
         id="path47814" />
      <path
         d="m -41.057503,1.3704173 c -0.4699,0 -0.7493,0.333375 -0.7493,0.892175 0,0.561975 0.2794,0.892175 0.752475,0.892175 0.4699,0 0.752474,-0.333375 0.752474,-0.879475 0,-0.57785 -0.273049,-0.904875 -0.755649,-0.904875 z m 0.0032,0.244475 c 0.29845,0 0.47625,0.244475 0.47625,0.657225 0,0.3937 -0.18415,0.638175 -0.47625,0.638175 -0.295275,0 -0.47625,-0.244475 -0.47625,-0.6477 0,-0.403225 0.180975,-0.6477 0.47625,-0.6477 z"
         id="path47816" />
      <path
         d="m -38.660379,1.9768423 c -0.0127,-0.161925 -0.04763,-0.2667 -0.111125,-0.358775 -0.1143,-0.155575 -0.314325,-0.24765 -0.5461,-0.24765 -0.45085,0 -0.739775,0.3556 -0.739775,0.90805 0,0.536575 0.28575,0.8763 0.7366,0.8763 0.396875,0 0.6477,-0.238125 0.67945,-0.644525 h -0.2667 c -0.04445,0.2667 -0.180975,0.40005 -0.4064,0.40005 -0.2921,0 -0.466725,-0.238125 -0.466725,-0.631825 0,-0.415925 0.17145,-0.663575 0.460375,-0.663575 0.22225,0 0.36195,0.130175 0.3937,0.36195 z"
         id="path47818" />
      <path
         d="m -36.920478,2.3387923 c 0,-0.254 -0.01905,-0.4064 -0.06667,-0.530225 -0.10795,-0.27305 -0.36195,-0.43815 -0.6731,-0.43815 -0.46355,0 -0.762,0.352425 -0.762,0.9017 0,0.549275 0.28575,0.88265 0.75565,0.88265 0.381,0 0.644525,-0.2159 0.7112,-0.57785 h -0.2667 c -0.07303,0.219075 -0.22225,0.333375 -0.434975,0.333375 -0.168275,0 -0.31115,-0.0762 -0.40005,-0.2159 -0.0635,-0.09525 -0.08573,-0.1905 -0.0889,-0.3556 z m -1.2192,-0.2159 c 0.02223,-0.307975 0.20955,-0.508 0.47625,-0.508 0.269875,0 0.4572,0.20955 0.4572,0.508 z"
         id="path47820" />
      <path
         d="m -35.406003,1.8815923 c -0.0032,-0.327025 -0.219075,-0.511175 -0.60325,-0.511175 -0.38735,0 -0.638175,0.200025 -0.638175,0.508 0,0.26035 0.13335,0.384175 0.52705,0.479425 l 0.24765,0.060325 c 0.18415,0.04445 0.257175,0.111125 0.257175,0.2286 0,0.15875 -0.155575,0.263525 -0.38735,0.263525 -0.142875,0 -0.263525,-0.041275 -0.3302,-0.111125 -0.04127,-0.047625 -0.06032,-0.09525 -0.0762,-0.212725 h -0.2794 c 0.0127,0.384175 0.2286,0.568325 0.663575,0.568325 0.4191,0 0.6858,-0.206375 0.6858,-0.52705 0,-0.24765 -0.1397,-0.384175 -0.4699,-0.46355 l -0.254,-0.060325 c -0.2159,-0.0508 -0.307975,-0.12065 -0.307975,-0.238125 0,-0.155575 0.136525,-0.250825 0.352425,-0.250825 0.212725,0 0.327025,0.092075 0.333375,0.2667 z"
         id="path47822" />
      <path
         d="m -33.81215,1.8815923 c -0.0032,-0.327025 -0.219075,-0.511175 -0.60325,-0.511175 -0.38735,0 -0.638175,0.200025 -0.638175,0.508 0,0.26035 0.13335,0.384175 0.52705,0.479425 l 0.24765,0.060325 c 0.18415,0.04445 0.257175,0.111125 0.257175,0.2286 0,0.15875 -0.155575,0.263525 -0.38735,0.263525 -0.142875,0 -0.263525,-0.041275 -0.3302,-0.111125 -0.04127,-0.047625 -0.06032,-0.09525 -0.0762,-0.212725 h -0.2794 c 0.0127,0.384175 0.2286,0.568325 0.663575,0.568325 0.4191,0 0.6858,-0.206375 0.6858,-0.52705 0,-0.24765 -0.1397,-0.384175 -0.4699,-0.46355 l -0.254,-0.060325 c -0.2159,-0.0508 -0.307975,-0.12065 -0.307975,-0.238125 0,-0.155575 0.136525,-0.250825 0.352425,-0.250825 0.212725,0 0.327025,0.092075 0.333375,0.2667 z"
         id="path47824" />
      <path
         d="m -33.139049,1.4180423 h -0.263525 v 1.6637 h 0.263525 z m 0,-0.65087498 h -0.2667 V 1.1005423 h 0.2667 z"
         id="path47826" />
      <path
         d="m -32.6882,1.4180423 v 1.6637 h 0.2667 v -0.917575 c 0,-0.339725 0.1778,-0.561975 0.45085,-0.561975 0.20955,0 0.3429,0.127 0.3429,0.327025 v 1.152525 h 0.263525 v -1.2573 c 0,-0.276225 -0.206375,-0.454025 -0.52705,-0.454025 -0.24765,0 -0.4064,0.09525 -0.55245,0.327025 v -0.2794 z"
         id="path47828" />
      <path
         d="m -29.862451,1.4180423 v 0.2413 c -0.13335,-0.200025 -0.2794,-0.288925 -0.48895,-0.288925 -0.403225,0 -0.682625,0.37465 -0.682625,0.90805 0,0.2794 0.06668,0.4826 0.20955,0.650875 0.123825,0.14605 0.282575,0.225425 0.454025,0.225425 0.200025,0 0.3429,-0.0889 0.4826,-0.29845 v 0.085725 c 0,0.4445 -0.123825,0.6096 -0.454025,0.6096 -0.225425,0 -0.3429,-0.0889 -0.3683,-0.2794 h -0.269875 c 0.0254,0.307975 0.269875,0.50165 0.631825,0.50165 0.244475,0 0.447675,-0.079375 0.555625,-0.212725 0.127,-0.155575 0.174625,-0.36195 0.174625,-0.752475 v -1.39065 z m -0.46355,0.19685 c 0.2794,0 0.43815,0.23495 0.43815,0.657225 0,0.403225 -0.161925,0.638175 -0.43815,0.638175 -0.27305,0 -0.4318,-0.238125 -0.4318,-0.6477 0,-0.4064 0.15875,-0.6477 0.4318,-0.6477 z"
         id="path47830" />
    </g>
    <g
       aria-label="Preprocessing"
       transform="rotate(-90,98.563055,74.407125)"
       id="text2821-6"
       style="font-size:3.175px;stroke-width:0.264583">
      <path
         d="m -41.721296,93.897473 h 0.727075 c 0.180975,0 0.32385,-0.05398 0.447675,-0.1651 0.1397,-0.127 0.200025,-0.276225 0.200025,-0.48895 0,-0.434975 -0.257175,-0.67945 -0.714375,-0.67945 h -0.955675 v 2.314575 h 0.295275 z m 0,-0.26035 v -0.8128 h 0.61595 c 0.282575,0 0.45085,0.1524 0.45085,0.4064 0,0.254 -0.168275,0.4064 -0.45085,0.4064 z"
         id="path47833" />
      <path
         d="m -39.968697,93.214848 v 1.6637 h 0.2667 v -0.8636 c 0.0032,-0.40005 0.168275,-0.57785 0.5334,-0.568325 v -0.269875 c -0.04445,-0.0063 -0.06985,-0.0095 -0.1016,-0.0095 -0.17145,0 -0.301625,0.1016 -0.454025,0.34925 v -0.301625 z"
         id="path47835" />
      <path
         d="m -37.533472,94.135598 c 0,-0.254 -0.01905,-0.4064 -0.06667,-0.530225 -0.10795,-0.27305 -0.36195,-0.43815 -0.6731,-0.43815 -0.46355,0 -0.762,0.352425 -0.762,0.9017 0,0.549275 0.28575,0.88265 0.75565,0.88265 0.381,0 0.644525,-0.2159 0.7112,-0.57785 h -0.2667 c -0.07303,0.219075 -0.22225,0.333375 -0.434975,0.333375 -0.168275,0 -0.31115,-0.0762 -0.40005,-0.2159 -0.0635,-0.09525 -0.08573,-0.1905 -0.0889,-0.3556 z m -1.2192,-0.2159 c 0.02222,-0.307975 0.20955,-0.508 0.47625,-0.508 0.269875,0 0.4572,0.20955 0.4572,0.508 z"
         id="path47837" />
      <path
         d="m -37.225498,95.570698 h 0.2667 v -0.866775 c 0.1397,0.17145 0.295275,0.24765 0.511175,0.24765 0.4318,0 0.7112,-0.346075 0.7112,-0.8763 0,-0.5588 -0.27305,-0.90805 -0.714375,-0.90805 -0.225425,0 -0.4064,0.1016 -0.530225,0.29845 v -0.250825 h -0.244475 z m 0.73025,-2.155825 c 0.2921,0 0.4826,0.257175 0.4826,0.65405 0,0.377825 -0.193675,0.635 -0.4826,0.635 -0.282575,0 -0.46355,-0.254 -0.46355,-0.644525 0,-0.390525 0.180975,-0.644525 0.46355,-0.644525 z"
         id="path47839" />
      <path
         d="m -35.412574,93.214848 v 1.6637 h 0.2667 v -0.8636 c 0.0032,-0.40005 0.168275,-0.57785 0.5334,-0.568325 v -0.269875 c -0.04445,-0.0063 -0.06985,-0.0095 -0.1016,-0.0095 -0.17145,0 -0.301625,0.1016 -0.454025,0.34925 v -0.301625 z"
         id="path47841" />
      <path
         d="m -33.729825,93.167223 c -0.4699,0 -0.7493,0.333375 -0.7493,0.892175 0,0.561975 0.2794,0.892175 0.752475,0.892175 0.4699,0 0.752475,-0.333375 0.752475,-0.879475 0,-0.57785 -0.27305,-0.904875 -0.75565,-0.904875 z m 0.0032,0.244475 c 0.29845,0 0.47625,0.244475 0.47625,0.657225 0,0.3937 -0.18415,0.638175 -0.47625,0.638175 -0.295275,0 -0.47625,-0.244475 -0.47625,-0.6477 0,-0.403225 0.180975,-0.6477 0.47625,-0.6477 z"
         id="path47843" />
      <path
         d="m -31.3327,93.773648 c -0.0127,-0.161925 -0.04763,-0.2667 -0.111125,-0.358775 -0.1143,-0.155575 -0.314325,-0.24765 -0.5461,-0.24765 -0.45085,0 -0.739775,0.3556 -0.739775,0.90805 0,0.536575 0.28575,0.8763 0.7366,0.8763 0.396875,0 0.6477,-0.238125 0.67945,-0.644525 h -0.2667 c -0.04445,0.2667 -0.180975,0.40005 -0.4064,0.40005 -0.2921,0 -0.466725,-0.238125 -0.466725,-0.631825 0,-0.415925 0.17145,-0.663575 0.460375,-0.663575 0.22225,0 0.36195,0.130175 0.3937,0.36195 z"
         id="path47845" />
      <path
         d="m -29.592799,94.135598 c 0,-0.254 -0.01905,-0.4064 -0.06668,-0.530225 -0.10795,-0.27305 -0.36195,-0.43815 -0.6731,-0.43815 -0.46355,0 -0.762,0.352425 -0.762,0.9017 0,0.549275 0.28575,0.88265 0.75565,0.88265 0.381,0 0.644525,-0.2159 0.7112,-0.57785 h -0.2667 c -0.07302,0.219075 -0.22225,0.333375 -0.434975,0.333375 -0.168275,0 -0.31115,-0.0762 -0.40005,-0.2159 -0.0635,-0.09525 -0.08573,-0.1905 -0.0889,-0.3556 z m -1.2192,-0.2159 c 0.02222,-0.307975 0.20955,-0.508 0.47625,-0.508 0.269875,0 0.4572,0.20955 0.4572,0.508 z"
         id="path47847" />
      <path
         d="m -28.078324,93.678398 c -0.0032,-0.327025 -0.219075,-0.511175 -0.60325,-0.511175 -0.38735,0 -0.638175,0.200025 -0.638175,0.508 0,0.26035 0.13335,0.384175 0.52705,0.479425 l 0.24765,0.06033 c 0.18415,0.04445 0.257175,0.111125 0.257175,0.2286 0,0.15875 -0.155575,0.263525 -0.38735,0.263525 -0.142875,0 -0.263525,-0.04127 -0.3302,-0.111125 -0.04127,-0.04762 -0.06032,-0.09525 -0.0762,-0.212725 h -0.2794 c 0.0127,0.384175 0.2286,0.568325 0.663575,0.568325 0.4191,0 0.6858,-0.206375 0.6858,-0.52705 0,-0.24765 -0.1397,-0.384175 -0.4699,-0.46355 l -0.254,-0.06032 c -0.2159,-0.0508 -0.307975,-0.12065 -0.307975,-0.238125 0,-0.155575 0.136525,-0.250825 0.352425,-0.250825 0.212725,0 0.327025,0.09207 0.333375,0.2667 z"
         id="path47849" />
      <path
         d="m -26.484471,93.678398 c -0.0032,-0.327025 -0.219075,-0.511175 -0.60325,-0.511175 -0.38735,0 -0.638175,0.200025 -0.638175,0.508 0,0.26035 0.13335,0.384175 0.52705,0.479425 l 0.24765,0.06033 c 0.18415,0.04445 0.257175,0.111125 0.257175,0.2286 0,0.15875 -0.155575,0.263525 -0.38735,0.263525 -0.142875,0 -0.263525,-0.04127 -0.3302,-0.111125 -0.04128,-0.04762 -0.06033,-0.09525 -0.0762,-0.212725 h -0.2794 c 0.0127,0.384175 0.2286,0.568325 0.663575,0.568325 0.4191,0 0.6858,-0.206375 0.6858,-0.52705 0,-0.24765 -0.1397,-0.384175 -0.4699,-0.46355 l -0.254,-0.06032 c -0.2159,-0.0508 -0.307975,-0.12065 -0.307975,-0.238125 0,-0.155575 0.136525,-0.250825 0.352425,-0.250825 0.212725,0 0.327025,0.09207 0.333375,0.2667 z"
         id="path47851" />
      <path
         d="m -25.811371,93.214848 h -0.263525 v 1.6637 h 0.263525 z m 0,-0.650875 h -0.2667 v 0.333375 h 0.2667 z"
         id="path47853" />
      <path
         d="m -25.360521,93.214848 v 1.6637 h 0.2667 v -0.917575 c 0,-0.339725 0.1778,-0.561975 0.45085,-0.561975 0.20955,0 0.3429,0.127 0.3429,0.327025 v 1.152525 h 0.263525 v -1.2573 c 0,-0.276225 -0.206375,-0.454025 -0.52705,-0.454025 -0.24765,0 -0.4064,0.09525 -0.55245,0.327025 v -0.2794 z"
         id="path47855" />
      <path
         d="m -22.534772,93.214848 v 0.2413 c -0.13335,-0.200025 -0.2794,-0.288925 -0.48895,-0.288925 -0.403225,0 -0.682625,0.37465 -0.682625,0.90805 0,0.2794 0.06668,0.4826 0.20955,0.650875 0.123825,0.14605 0.282575,0.225425 0.454025,0.225425 0.200025,0 0.3429,-0.0889 0.4826,-0.29845 v 0.08573 c 0,0.4445 -0.123825,0.6096 -0.454025,0.6096 -0.225425,0 -0.3429,-0.0889 -0.3683,-0.2794 h -0.269875 c 0.0254,0.307975 0.269875,0.50165 0.631825,0.50165 0.244475,0 0.447675,-0.07937 0.555625,-0.212725 0.127,-0.155575 0.174625,-0.36195 0.174625,-0.752475 v -1.39065 z m -0.46355,0.19685 c 0.2794,0 0.43815,0.23495 0.43815,0.657225 0,0.403225 -0.161925,0.638175 -0.43815,0.638175 -0.27305,0 -0.4318,-0.238125 -0.4318,-0.6477 0,-0.4064 0.15875,-0.6477 0.4318,-0.6477 z"
         id="path47857" />
    </g>
    <g
       aria-label="Search"
       transform="rotate(-90,98.563055,74.407125)"
       id="text2825"
       style="font-size:3.175px;stroke-width:0.264583">
      <path
         d="m -88.196689,0.91391844 c 0,-0.15875 -0.0095,-0.2032 -0.06032,-0.31114999 -0.127,-0.2667 -0.396875,-0.4064 -0.7874,-0.4064 -0.508,0 -0.822325,0.26035 -0.822325,0.67944999 0,0.28257496 0.149225,0.46037496 0.454025,0.53974996 l 0.574675,0.1524 c 0.295275,0.0762 0.42545,0.193675 0.42545,0.37465 0,0.123825 -0.06668,0.250825 -0.1651,0.320675 -0.09207,0.066675 -0.238125,0.098425 -0.42545,0.098425 -0.254,0 -0.422275,-0.060325 -0.5334,-0.193675 -0.08572,-0.1016 -0.123825,-0.212725 -0.12065,-0.3556 h -0.2794 c 0.0032,0.212725 0.04445,0.352425 0.136525,0.479425 0.15875,0.219075 0.42545,0.3302 0.777875,0.3302 0.276225,0 0.50165,-0.0635 0.650875,-0.1778 0.155575,-0.123825 0.254,-0.3302 0.254,-0.530225 0,-0.28575 -0.1778,-0.4953 -0.492125,-0.581025 l -0.581025,-0.155575 c -0.2794,-0.0762 -0.381,-0.1651 -0.381,-0.34289996 0,-0.23494999 0.206375,-0.39052499 0.517525,-0.39052499 0.3683,0 0.574675,0.1651 0.57785,0.46989999 z"
         id="path47860" />
      <path
         d="m -86.352016,1.8060934 c 0,-0.254 -0.01905,-0.4064 -0.06667,-0.530225 -0.10795,-0.27305 -0.36195,-0.43814996 -0.6731,-0.43814996 -0.46355,0 -0.762,0.35242496 -0.762,0.90169996 0,0.549275 0.28575,0.88265 0.75565,0.88265 0.381,0 0.644525,-0.2159 0.7112,-0.57785 h -0.2667 c -0.07303,0.219075 -0.22225,0.333375 -0.434975,0.333375 -0.168275,0 -0.31115,-0.0762 -0.40005,-0.2159 -0.0635,-0.09525 -0.08573,-0.1905 -0.0889,-0.3556 z m -1.2192,-0.2159 c 0.02223,-0.307975 0.20955,-0.508 0.47625,-0.508 0.269875,0 0.4572,0.20955 0.4572,0.508 z"
         id="path47862" />
      <path
         d="m -84.539091,2.3934684 c -0.02858,0.00635 -0.04127,0.00635 -0.05715,0.00635 -0.09207,0 -0.142875,-0.047625 -0.142875,-0.130175 v -0.9779 c 0,-0.29527496 -0.2159,-0.45402496 -0.625475,-0.45402496 -0.244475,0 -0.43815,0.06985 -0.55245,0.19367496 -0.0762,0.085725 -0.10795,0.180975 -0.1143,0.346075 h 0.2667 c 0.02222,-0.2032 0.142875,-0.295275 0.390525,-0.295275 0.2413,0 0.371475,0.0889 0.371475,0.24765 v 0.06985 c -0.0032,0.1143 -0.06033,0.155575 -0.276225,0.18415 -0.37465,0.047625 -0.4318,0.060325 -0.5334,0.1016 -0.193675,0.08255 -0.2921,0.2286 -0.2921,0.4445 0,0.301625 0.20955,0.492125 0.5461,0.492125 0.20955,0 0.377825,-0.073025 0.56515,-0.244475 0.01905,0.17145 0.1016,0.244475 0.27305,0.244475 0.05715,0 0.09208,-0.00635 0.180975,-0.028575 z m -0.46355,-0.3683 c 0,0.0889 -0.0254,0.142875 -0.104775,0.2159 -0.10795,0.098425 -0.238125,0.149225 -0.3937,0.149225 -0.206375,0 -0.327025,-0.098425 -0.327025,-0.2667 0,-0.174625 0.1143,-0.263525 0.40005,-0.3048 0.282575,-0.0381 0.33655,-0.0508 0.42545,-0.092075 z"
         id="path47864" />
      <path
         d="M -84.253342,0.88534344 V 2.5490434 h 0.2667 v -0.8636 c 0.0032,-0.40005 0.168275,-0.57785 0.5334,-0.568325 V 0.84724344 c -0.04445,-0.00635 -0.06985,-0.009525 -0.1016,-0.009525 -0.17145,0 -0.301625,0.1016 -0.454025,0.34924996 V 0.88534344 Z"
         id="path47866" />
      <path
         d="m -81.932416,1.4441434 c -0.0127,-0.161925 -0.04762,-0.2667 -0.111125,-0.358775 -0.1143,-0.15557496 -0.314325,-0.24764996 -0.5461,-0.24764996 -0.45085,0 -0.739775,0.35559996 -0.739775,0.90804996 0,0.536575 0.28575,0.8763 0.7366,0.8763 0.396875,0 0.6477,-0.238125 0.67945,-0.644525 h -0.2667 c -0.04445,0.2667 -0.180975,0.40005 -0.4064,0.40005 -0.2921,0 -0.466725,-0.238125 -0.466725,-0.631825 0,-0.415925 0.17145,-0.663575 0.460375,-0.663575 0.22225,0 0.36195,0.130175 0.3937,0.36195 z"
         id="path47868" />
      <path
         d="M -81.618091,0.23446845 V 2.5490434 h 0.263525 v -0.917575 c 0,-0.339725 0.1778,-0.561975 0.45085,-0.561975 0.0889,0 0.17145,0.0254 0.23495,0.073025 0.0762,0.05715 0.10795,0.136525 0.10795,0.254 v 1.152525 h 0.263525 v -1.2573 c 0,-0.2794 -0.200025,-0.45402496 -0.523875,-0.45402496 -0.23495,0 -0.377825,0.073025 -0.5334,0.27622496 V 0.23446845 Z"
         id="path47870" />
    </g>
    <g
       aria-label="Postprocessing"
       id="text2829"
       style="font-size:3.175px;stroke-width:0.264583"
       transform="translate(3.5184209,172.97018)">
      <path
         d="M 34.429125,120.49398 H 35.1562 c 0.180975,0 0.32385,-0.054 0.447675,-0.1651 0.1397,-0.127 0.200025,-0.27623 0.200025,-0.48895 0,-0.43498 -0.257175,-0.67945 -0.714375,-0.67945 H 34.13385 v 2.31457 h 0.295275 z m 0,-0.26035 v -0.8128 h 0.61595 c 0.282575,0 0.45085,0.1524 0.45085,0.4064 0,0.254 -0.168275,0.4064 -0.45085,0.4064 z"
         id="path47873" />
      <path
         d="m 36.743702,119.76373 c -0.4699,0 -0.7493,0.33337 -0.7493,0.89217 0,0.56198 0.2794,0.89218 0.752475,0.89218 0.4699,0 0.752475,-0.33338 0.752475,-0.87948 0,-0.57785 -0.27305,-0.90487 -0.75565,-0.90487 z m 0.0032,0.24447 c 0.29845,0 0.47625,0.24448 0.47625,0.65723 0,0.3937 -0.18415,0.63817 -0.47625,0.63817 -0.295275,0 -0.47625,-0.24447 -0.47625,-0.6477 0,-0.40322 0.180975,-0.6477 0.47625,-0.6477 z"
         id="path47875" />
      <path
         d="m 39.036051,120.2749 c -0.0032,-0.32702 -0.219075,-0.51117 -0.60325,-0.51117 -0.38735,0 -0.638175,0.20002 -0.638175,0.508 0,0.26035 0.13335,0.38417 0.52705,0.47942 l 0.24765,0.0603 c 0.18415,0.0444 0.257175,0.11112 0.257175,0.2286 0,0.15875 -0.155575,0.26352 -0.38735,0.26352 -0.142875,0 -0.263525,-0.0413 -0.3302,-0.11112 -0.04127,-0.0476 -0.06032,-0.0953 -0.0762,-0.21273 h -0.2794 c 0.0127,0.38418 0.2286,0.56833 0.663575,0.56833 0.4191,0 0.6858,-0.20638 0.6858,-0.52705 0,-0.24765 -0.1397,-0.38418 -0.4699,-0.46355 l -0.254,-0.0603 c -0.2159,-0.0508 -0.307975,-0.12065 -0.307975,-0.23812 0,-0.15558 0.136525,-0.25083 0.352425,-0.25083 0.212725,0 0.327025,0.0921 0.333375,0.2667 z"
         id="path47877" />
      <path
         d="m 40.029825,119.81135 h -0.27305 v -0.4572 H 39.49325 v 0.4572 h -0.225425 v 0.2159 h 0.225425 v 1.2573 c 0,0.17145 0.1143,0.26353 0.320675,0.26353 0.06985,0 0.127,-0.006 0.2159,-0.0222 v -0.22225 c -0.0381,0.01 -0.07303,0.0127 -0.127,0.0127 -0.1143,0 -0.14605,-0.0318 -0.14605,-0.14922 v -1.13983 h 0.27305 z"
         id="path47879" />
      <path
         d="m 40.283828,122.1672 h 0.2667 v -0.86677 c 0.1397,0.17145 0.295275,0.24765 0.511175,0.24765 0.4318,0 0.7112,-0.34608 0.7112,-0.8763 0,-0.5588 -0.27305,-0.90805 -0.714375,-0.90805 -0.225425,0 -0.4064,0.1016 -0.530225,0.29845 v -0.25083 h -0.244475 z m 0.73025,-2.15582 c 0.2921,0 0.4826,0.25717 0.4826,0.65405 0,0.37782 -0.193675,0.635 -0.4826,0.635 -0.282575,0 -0.46355,-0.254 -0.46355,-0.64453 0,-0.39052 0.180975,-0.64452 0.46355,-0.64452 z"
         id="path47881" />
      <path
         d="m 42.096752,119.81135 v 1.6637 h 0.2667 v -0.8636 c 0.0032,-0.40005 0.168275,-0.57785 0.5334,-0.56832 v -0.26988 c -0.04445,-0.006 -0.06985,-0.01 -0.1016,-0.01 -0.17145,0 -0.301625,0.1016 -0.454025,0.34925 v -0.30163 z"
         id="path47883" />
      <path
         d="m 43.779501,119.76373 c -0.4699,0 -0.7493,0.33337 -0.7493,0.89217 0,0.56198 0.2794,0.89218 0.752475,0.89218 0.4699,0 0.752475,-0.33338 0.752475,-0.87948 0,-0.57785 -0.27305,-0.90487 -0.75565,-0.90487 z m 0.0032,0.24447 c 0.29845,0 0.47625,0.24448 0.47625,0.65723 0,0.3937 -0.18415,0.63817 -0.47625,0.63817 -0.295275,0 -0.47625,-0.24447 -0.47625,-0.6477 0,-0.40322 0.180975,-0.6477 0.47625,-0.6477 z"
         id="path47885" />
      <path
         d="m 46.176625,120.37015 c -0.0127,-0.16192 -0.04763,-0.2667 -0.111125,-0.35877 -0.1143,-0.15558 -0.314325,-0.24765 -0.5461,-0.24765 -0.45085,0 -0.739775,0.3556 -0.739775,0.90805 0,0.53657 0.28575,0.8763 0.7366,0.8763 0.396875,0 0.6477,-0.23813 0.67945,-0.64453 h -0.2667 c -0.04445,0.2667 -0.180975,0.40005 -0.4064,0.40005 -0.2921,0 -0.466725,-0.23812 -0.466725,-0.63182 0,-0.41593 0.17145,-0.66358 0.460375,-0.66358 0.22225,0 0.36195,0.13018 0.3937,0.36195 z"
         id="path47887" />
      <path
         d="m 47.916526,120.7321 c 0,-0.254 -0.01905,-0.4064 -0.06667,-0.53022 -0.10795,-0.27305 -0.36195,-0.43815 -0.6731,-0.43815 -0.46355,0 -0.762,0.35242 -0.762,0.9017 0,0.54927 0.28575,0.88265 0.75565,0.88265 0.381,0 0.644525,-0.2159 0.7112,-0.57785 h -0.2667 c -0.07303,0.21907 -0.22225,0.33337 -0.434975,0.33337 -0.168275,0 -0.31115,-0.0762 -0.40005,-0.2159 -0.0635,-0.0952 -0.08573,-0.1905 -0.0889,-0.3556 z m -1.2192,-0.2159 c 0.02223,-0.30797 0.20955,-0.508 0.47625,-0.508 0.269875,0 0.4572,0.20955 0.4572,0.508 z"
         id="path47889" />
      <path
         d="m 49.431002,120.2749 c -0.0032,-0.32702 -0.219075,-0.51117 -0.60325,-0.51117 -0.38735,0 -0.638175,0.20002 -0.638175,0.508 0,0.26035 0.13335,0.38417 0.52705,0.47942 l 0.24765,0.0603 c 0.18415,0.0444 0.257175,0.11112 0.257175,0.2286 0,0.15875 -0.155575,0.26352 -0.38735,0.26352 -0.142875,0 -0.263525,-0.0413 -0.3302,-0.11112 -0.04127,-0.0476 -0.06032,-0.0953 -0.0762,-0.21273 h -0.2794 c 0.0127,0.38418 0.2286,0.56833 0.663575,0.56833 0.4191,0 0.6858,-0.20638 0.6858,-0.52705 0,-0.24765 -0.1397,-0.38418 -0.4699,-0.46355 l -0.254,-0.0603 c -0.2159,-0.0508 -0.307975,-0.12065 -0.307975,-0.23812 0,-0.15558 0.136525,-0.25083 0.352425,-0.25083 0.212725,0 0.327025,0.0921 0.333375,0.2667 z"
         id="path47891" />
      <path
         d="m 51.024854,120.2749 c -0.0032,-0.32702 -0.219075,-0.51117 -0.60325,-0.51117 -0.38735,0 -0.638175,0.20002 -0.638175,0.508 0,0.26035 0.13335,0.38417 0.52705,0.47942 l 0.24765,0.0603 c 0.18415,0.0444 0.257175,0.11112 0.257175,0.2286 0,0.15875 -0.155575,0.26352 -0.38735,0.26352 -0.142875,0 -0.263525,-0.0413 -0.3302,-0.11112 -0.04127,-0.0476 -0.06032,-0.0953 -0.0762,-0.21273 h -0.2794 c 0.0127,0.38418 0.2286,0.56833 0.663575,0.56833 0.4191,0 0.6858,-0.20638 0.6858,-0.52705 0,-0.24765 -0.1397,-0.38418 -0.4699,-0.46355 l -0.254,-0.0603 c -0.2159,-0.0508 -0.307975,-0.12065 -0.307975,-0.23812 0,-0.15558 0.136525,-0.25083 0.352425,-0.25083 0.212725,0 0.327025,0.0921 0.333375,0.2667 z"
         id="path47893" />
      <path
         d="m 51.697954,119.81135 h -0.263525 v 1.6637 h 0.263525 z m 0,-0.65087 h -0.2667 v 0.33337 h 0.2667 z"
         id="path47895" />
      <path
         d="m 52.148804,119.81135 v 1.6637 h 0.2667 v -0.91757 c 0,-0.33973 0.1778,-0.56198 0.45085,-0.56198 0.20955,0 0.3429,0.127 0.3429,0.32703 v 1.15252 h 0.263525 v -1.2573 c 0,-0.27622 -0.206375,-0.45402 -0.52705,-0.45402 -0.24765,0 -0.4064,0.0953 -0.55245,0.32702 v -0.2794 z"
         id="path47897" />
      <path
         d="m 54.974554,119.81135 v 0.2413 c -0.13335,-0.20002 -0.2794,-0.28892 -0.48895,-0.28892 -0.403225,0 -0.682625,0.37465 -0.682625,0.90805 0,0.2794 0.06667,0.4826 0.20955,0.65087 0.123825,0.14605 0.282575,0.22543 0.454025,0.22543 0.200025,0 0.3429,-0.0889 0.4826,-0.29845 v 0.0857 c 0,0.4445 -0.123825,0.6096 -0.454025,0.6096 -0.225425,0 -0.3429,-0.0889 -0.3683,-0.2794 h -0.269875 c 0.0254,0.30798 0.269875,0.50165 0.631825,0.50165 0.244475,0 0.447675,-0.0794 0.555625,-0.21272 0.127,-0.15558 0.174625,-0.36195 0.174625,-0.75248 v -1.39065 z m -0.46355,0.19685 c 0.2794,0 0.43815,0.23495 0.43815,0.65723 0,0.40322 -0.161925,0.63817 -0.43815,0.63817 -0.27305,0 -0.4318,-0.23812 -0.4318,-0.6477 0,-0.4064 0.15875,-0.6477 0.4318,-0.6477 z"
         id="path47899" />
    </g>
    <g
       aria-label="Spectra (.mgf)"
       id="text2833"
       style="font-size:3.175px;text-align:center;text-anchor:middle;stroke-width:0.264583"
       transform="translate(24.15593,172.97018)">
      <path
         d="m 66.824379,24.439685 c 0,-0.15875 -0.0095,-0.2032 -0.06032,-0.31115 -0.127,-0.2667 -0.396875,-0.4064 -0.7874,-0.4064 -0.508,0 -0.822325,0.26035 -0.822325,0.67945 0,0.282575 0.149225,0.460375 0.454025,0.53975 l 0.574675,0.1524 c 0.295275,0.0762 0.42545,0.193675 0.42545,0.37465 0,0.123825 -0.06668,0.250825 -0.1651,0.320675 -0.09207,0.06668 -0.238125,0.09843 -0.42545,0.09843 -0.254,0 -0.422275,-0.06033 -0.5334,-0.193675 -0.08572,-0.1016 -0.123825,-0.212725 -0.12065,-0.3556 h -0.2794 c 0.0032,0.212725 0.04445,0.352425 0.136525,0.479425 0.15875,0.219075 0.42545,0.3302 0.777875,0.3302 0.276225,0 0.50165,-0.0635 0.650875,-0.1778 0.155575,-0.123825 0.254,-0.3302 0.254,-0.530225 0,-0.28575 -0.1778,-0.4953 -0.492125,-0.581025 l -0.58103,-0.15558 c -0.2794,-0.0762 -0.381,-0.1651 -0.381,-0.3429 0,-0.23495 0.206375,-0.390525 0.517525,-0.390525 0.3683,0 0.574675,0.1651 0.57785,0.4699 z"
         id="path47902" />
      <path
         d="m 67.221254,26.76696 h 0.2667 v -0.866775 c 0.1397,0.17145 0.295275,0.24765 0.511175,0.24765 0.4318,0 0.7112,-0.346075 0.7112,-0.8763 0,-0.5588 -0.27305,-0.90805 -0.714375,-0.90805 -0.225425,0 -0.4064,0.1016 -0.530225,0.29845 V 24.41111 h -0.244475 z m 0.73025,-2.155825 c 0.2921,0 0.4826,0.257175 0.4826,0.65405 0,0.377825 -0.193675,0.635 -0.4826,0.635 -0.282575,0 -0.46355,-0.254 -0.46355,-0.644525 0,-0.390525 0.180975,-0.644525 0.46355,-0.644525 z"
         id="path47904" />
      <path
         d="m 70.443878,25.33186 c 0,-0.254 -0.01905,-0.4064 -0.06668,-0.530225 -0.10795,-0.27305 -0.36195,-0.43815 -0.6731,-0.43815 -0.46355,0 -0.762,0.352425 -0.762,0.9017 0,0.549275 0.28575,0.88265 0.75565,0.88265 0.381,0 0.644525,-0.2159 0.7112,-0.57785 h -0.2667 c -0.07303,0.219075 -0.22225,0.333375 -0.434975,0.333375 -0.168275,0 -0.31115,-0.0762 -0.40005,-0.2159 -0.0635,-0.09525 -0.08572,-0.1905 -0.0889,-0.3556 z m -1.2192,-0.2159 c 0.02223,-0.307975 0.20955,-0.508 0.47625,-0.508 0.269875,0 0.4572,0.20955 0.4572,0.508 z"
         id="path47906" />
      <path
         d="m 72.075827,24.96991 c -0.0127,-0.161925 -0.04763,-0.2667 -0.111125,-0.358775 -0.1143,-0.155575 -0.314325,-0.24765 -0.5461,-0.24765 -0.45085,0 -0.739775,0.3556 -0.739775,0.90805 0,0.536575 0.28575,0.8763 0.7366,0.8763 0.396875,0 0.6477,-0.238125 0.67945,-0.644525 h -0.2667 c -0.04445,0.2667 -0.180975,0.40005 -0.4064,0.40005 -0.2921,0 -0.466725,-0.238125 -0.466725,-0.631825 0,-0.415925 0.17145,-0.663575 0.460375,-0.663575 0.22225,0 0.36195,0.130175 0.3937,0.36195 z"
         id="path47908" />
      <path
         d="M 72.99975,24.41111 H 72.7267 v -0.4572 h -0.263525 v 0.4572 H 72.23775 v 0.2159 h 0.225425 v 1.2573 c 0,0.17145 0.1143,0.263525 0.320675,0.263525 0.06985,0 0.127,-0.0064 0.2159,-0.02222 v -0.22225 c -0.0381,0.0095 -0.07303,0.0127 -0.127,0.0127 -0.1143,0 -0.14605,-0.03175 -0.14605,-0.149225 v -1.13983 h 0.27305 z"
         id="path47910" />
      <path
         d="m 73.279153,24.41111 v 1.6637 h 0.2667 v -0.8636 c 0.0032,-0.40005 0.168275,-0.57785 0.5334,-0.568325 V 24.37301 c -0.04445,-0.0064 -0.06985,-0.0095 -0.1016,-0.0095 -0.17145,0 -0.301625,0.1016 -0.454025,0.34925 v -0.30165 z"
         id="path47912" />
      <path
         d="m 75.803279,25.919235 c -0.02858,0.0064 -0.04127,0.0064 -0.05715,0.0064 -0.09207,0 -0.142875,-0.04763 -0.142875,-0.130175 v -0.9779 c 0,-0.295275 -0.2159,-0.454025 -0.625475,-0.454025 -0.244475,0 -0.43815,0.06985 -0.55245,0.193675 -0.0762,0.08573 -0.10795,0.180975 -0.1143,0.346075 h 0.2667 c 0.02222,-0.2032 0.142875,-0.295275 0.390525,-0.295275 0.2413,0 0.371475,0.0889 0.371475,0.24765 v 0.06985 c -0.0032,0.1143 -0.06033,0.155575 -0.276225,0.18415 -0.37465,0.04763 -0.4318,0.06032 -0.5334,0.1016 -0.193675,0.08255 -0.2921,0.2286 -0.2921,0.4445 0,0.301625 0.20955,0.492125 0.5461,0.492125 0.20955,0 0.377825,-0.07303 0.56515,-0.244475 0.01905,0.17145 0.1016,0.244475 0.27305,0.244475 0.05715,0 0.09207,-0.0064 0.180975,-0.02858 z m -0.46355,-0.3683 c 0,0.0889 -0.0254,0.142875 -0.104775,0.2159 -0.10795,0.09842 -0.238125,0.149225 -0.3937,0.149225 -0.206375,0 -0.327025,-0.09843 -0.327025,-0.2667 0,-0.174625 0.1143,-0.263525 0.40005,-0.3048 0.282575,-0.0381 0.33655,-0.0508 0.42545,-0.09208 z"
         id="path47914" />
      <path
         d="m 67.00218,27.728985 c -0.3175,0.415925 -0.517525,0.993775 -0.517525,1.49225 0,0.50165 0.200025,1.0795 0.517525,1.495425 h 0.174625 c -0.2794,-0.454025 -0.434975,-0.987425 -0.434975,-1.495425 0,-0.504825 0.155575,-1.0414 0.434975,-1.49225 z"
         id="path47916" />
      <path
         d="m 67.916581,29.71336 h -0.3302 v 0.3302 h 0.3302 z"
         id="path47918" />
      <path
         d="m 68.415056,28.37986 v 1.6637 h 0.2667 v -1.044575 c 0,-0.2413 0.174625,-0.434975 0.390525,-0.434975 0.19685,0 0.307975,0.12065 0.307975,0.333375 v 1.146175 h 0.2667 v -1.044575 c 0,-0.2413 0.174625,-0.434975 0.390525,-0.434975 0.193675,0 0.307975,0.123825 0.307975,0.333375 v 1.146175 h 0.2667 v -1.247775 c 0,-0.29845 -0.17145,-0.46355 -0.4826,-0.46355 -0.22225,0 -0.3556,0.06668 -0.511175,0.254 -0.09843,-0.1778 -0.231775,-0.254 -0.447675,-0.254 -0.22225,0 -0.371475,0.08255 -0.511175,0.282575 v -0.23495 z"
         id="path47920" />
      <path
         d="m 72.120281,28.37986 v 0.2413 c -0.13335,-0.200025 -0.2794,-0.288925 -0.48895,-0.288925 -0.403225,0 -0.682625,0.37465 -0.682625,0.90805 0,0.2794 0.06668,0.4826 0.20955,0.650875 0.123825,0.14605 0.282575,0.225425 0.454025,0.225425 0.200025,0 0.3429,-0.0889 0.4826,-0.29845 v 0.08573 c 0,0.4445 -0.123825,0.6096 -0.454025,0.6096 -0.225425,0 -0.3429,-0.0889 -0.3683,-0.2794 h -0.269875 c 0.0254,0.307975 0.269875,0.50165 0.631825,0.50165 0.244475,0 0.447675,-0.07938 0.555625,-0.212725 0.127,-0.155575 0.174625,-0.36195 0.174625,-0.752475 v -1.39065 z m -0.46355,0.19685 c 0.2794,0 0.43815,0.23495 0.43815,0.657225 0,0.403225 -0.161925,0.638175 -0.43815,0.638175 -0.27305,0 -0.4318,-0.238125 -0.4318,-0.6477 0,-0.4064 0.15875,-0.6477 0.4318,-0.6477 z"
         id="path47922" />
      <path
         d="m 73.402979,28.37986 h -0.276225 v -0.26035 c 0,-0.111125 0.06032,-0.168275 0.18415,-0.168275 0.02223,0 0.03175,0 0.09208,0.0032 V 27.73536 c -0.06033,-0.0127 -0.09525,-0.01587 -0.149225,-0.01587 -0.244475,0 -0.390525,0.1397 -0.390525,0.377825 v 0.282575 h -0.22225 v 0.2159 h 0.22225 v 1.4478 h 0.263525 v -1.4478 h 0.276225 z"
         id="path47924" />
      <path
         d="m 73.787151,30.71666 c 0.3175,-0.415925 0.517525,-0.993775 0.517525,-1.49225 0,-0.50165 -0.200025,-1.0795 -0.517525,-1.495425 h -0.174625 c 0.2794,0.454025 0.434975,0.987425 0.434975,1.495425 0,0.504825 -0.155575,1.0414 -0.434975,1.49225 z"
         id="path47926" />
    </g>
    <g
       aria-label="Proteins (.fa)"
       id="text2837"
       style="font-size:3.175px;stroke-width:0.264583"
       transform="translate(24.15593,172.97018)">
      <path
         d="m 14.417962,25.610733 h 0.727075 c 0.180975,0 0.32385,-0.05398 0.447675,-0.1651 0.1397,-0.127 0.200025,-0.276225 0.200025,-0.48895 0,-0.434975 -0.257175,-0.67945 -0.714375,-0.67945 h -0.955675 v 2.314575 h 0.295275 z m 0,-0.26035 v -0.8128 h 0.61595 c 0.282575,0 0.45085,0.1524 0.45085,0.4064 0,0.254 -0.168275,0.4064 -0.45085,0.4064 z"
         id="path47929" />
      <path
         d="m 16.170562,24.928108 v 1.6637 h 0.2667 v -0.8636 c 0.0032,-0.40005 0.168275,-0.57785 0.5334,-0.568325 v -0.269875 c -0.04445,-0.0064 -0.06985,-0.0095 -0.1016,-0.0095 -0.17145,0 -0.301625,0.1016 -0.454025,0.34925 v -0.301625 z"
         id="path47931" />
      <path
         d="m 17.85331,24.880483 c -0.4699,0 -0.7493,0.333375 -0.7493,0.892175 0,0.561975 0.2794,0.892175 0.752475,0.892175 0.4699,0 0.752475,-0.333375 0.752475,-0.879475 0,-0.57785 -0.27305,-0.904875 -0.75565,-0.904875 z m 0.0032,0.244475 c 0.29845,0 0.47625,0.244475 0.47625,0.657225 0,0.3937 -0.18415,0.638175 -0.47625,0.638175 -0.295275,0 -0.47625,-0.244475 -0.47625,-0.6477 0,-0.403225 0.180975,-0.6477 0.47625,-0.6477 z"
         id="path47933" />
      <path
         d="m 19.532882,24.928108 h -0.27305 v -0.4572 h -0.263525 v 0.4572 h -0.225425 v 0.2159 h 0.225425 v 1.2573 c 0,0.17145 0.1143,0.263525 0.320675,0.263525 0.06985,0 0.127,-0.0064 0.2159,-0.02223 v -0.22225 c -0.0381,0.0095 -0.07303,0.0127 -0.127,0.0127 -0.1143,0 -0.14605,-0.03175 -0.14605,-0.149225 v -1.139825 h 0.27305 z"
         id="path47935" />
      <path
         d="m 21.193407,25.848858 c 0,-0.254 -0.01905,-0.4064 -0.06668,-0.530225 -0.10795,-0.27305 -0.36195,-0.43815 -0.6731,-0.43815 -0.46355,0 -0.762,0.352425 -0.762,0.9017 0,0.549275 0.28575,0.88265 0.75565,0.88265 0.381,0 0.644525,-0.2159 0.7112,-0.57785 h -0.2667 c -0.07302,0.219075 -0.22225,0.333375 -0.434975,0.333375 -0.168275,0 -0.31115,-0.0762 -0.40005,-0.2159 -0.0635,-0.09525 -0.08573,-0.1905 -0.0889,-0.3556 z m -1.2192,-0.2159 c 0.02222,-0.307975 0.20955,-0.508 0.47625,-0.508 0.269875,0 0.4572,0.20955 0.4572,0.508 z"
         id="path47937" />
      <path
         d="m 21.806181,24.928108 h -0.263525 v 1.6637 h 0.263525 z m 0,-0.650875 h -0.2667 v 0.333375 h 0.2667 z"
         id="path47939" />
      <path
         d="m 22.257031,24.928108 v 1.6637 h 0.2667 v -0.917575 c 0,-0.339725 0.1778,-0.561975 0.45085,-0.561975 0.20955,0 0.3429,0.127 0.3429,0.327025 v 1.152525 h 0.263525 v -1.2573 c 0,-0.276225 -0.206375,-0.454025 -0.52705,-0.454025 -0.24765,0 -0.4064,0.09525 -0.55245,0.327025 v -0.2794 z"
         id="path47941" />
      <path
         d="m 25.19073,25.391658 c -0.0032,-0.327025 -0.219075,-0.511175 -0.60325,-0.511175 -0.38735,0 -0.638175,0.200025 -0.638175,0.508 0,0.26035 0.13335,0.384175 0.52705,0.479425 l 0.24765,0.06032 c 0.18415,0.04445 0.257175,0.111125 0.257175,0.2286 0,0.15875 -0.155575,0.263525 -0.38735,0.263525 -0.142875,0 -0.263525,-0.04127 -0.3302,-0.111125 -0.04127,-0.04763 -0.06032,-0.09525 -0.0762,-0.212725 h -0.2794 c 0.0127,0.384175 0.2286,0.568325 0.663575,0.568325 0.4191,0 0.6858,-0.206375 0.6858,-0.52705 0,-0.24765 -0.1397,-0.384175 -0.4699,-0.46355 l -0.254,-0.06033 c -0.2159,-0.0508 -0.307975,-0.12065 -0.307975,-0.238125 0,-0.155575 0.136525,-0.250825 0.352425,-0.250825 0.212725,0 0.327025,0.09208 0.333375,0.2667 z"
         id="path47943" />
      <path
         d="m 27.01953,24.277233 c -0.3175,0.415925 -0.517525,0.993775 -0.517525,1.49225 0,0.50165 0.200025,1.0795 0.517525,1.495425 h 0.174625 c -0.2794,-0.454025 -0.434975,-0.987425 -0.434975,-1.495425 0,-0.504825 0.155575,-1.0414 0.434975,-1.49225 z"
         id="path47945" />
      <path
         d="m 27.933931,26.261608 h -0.3302 v 0.3302 h 0.3302 z"
         id="path47947" />
      <path
         d="M 29.029305,24.928108 H 28.75308 v -0.26035 c 0,-0.111125 0.06032,-0.168275 0.18415,-0.168275 0.02222,0 0.03175,0 0.09208,0.0032 v -0.219075 c -0.06033,-0.0127 -0.09525,-0.01588 -0.149225,-0.01588 -0.244475,0 -0.390525,0.1397 -0.390525,0.377825 v 0.282575 h -0.22225 v 0.2159 h 0.22225 v 1.4478 h 0.263525 v -1.4478 h 0.276225 z"
         id="path47949" />
      <path
         d="m 30.766032,26.436233 c -0.02858,0.0063 -0.04127,0.0063 -0.05715,0.0063 -0.09207,0 -0.142875,-0.04763 -0.142875,-0.130175 v -0.9779 c 0,-0.295275 -0.2159,-0.454025 -0.625475,-0.454025 -0.244475,0 -0.43815,0.06985 -0.55245,0.193675 -0.0762,0.08573 -0.10795,0.180975 -0.1143,0.346075 h 0.2667 c 0.02222,-0.2032 0.142875,-0.295275 0.390525,-0.295275 0.2413,0 0.371475,0.0889 0.371475,0.24765 v 0.06985 c -0.0032,0.1143 -0.06033,0.155575 -0.276225,0.18415 -0.37465,0.04763 -0.4318,0.06032 -0.5334,0.1016 -0.193675,0.08255 -0.2921,0.2286 -0.2921,0.4445 0,0.301625 0.20955,0.492125 0.5461,0.492125 0.20955,0 0.377825,-0.07303 0.56515,-0.244475 0.01905,0.17145 0.1016,0.244475 0.27305,0.244475 0.05715,0 0.09208,-0.0064 0.180975,-0.02858 z m -0.46355,-0.3683 c 0,0.0889 -0.0254,0.142875 -0.104775,0.2159 -0.10795,0.09842 -0.238125,0.149225 -0.3937,0.149225 -0.206375,0 -0.327025,-0.09842 -0.327025,-0.2667 0,-0.174625 0.1143,-0.263525 0.40005,-0.3048 0.282575,-0.0381 0.33655,-0.0508 0.42545,-0.09207 z"
         id="path47951" />
      <path
         d="m 31.12798,27.264908 c 0.3175,-0.415925 0.517525,-0.993775 0.517525,-1.49225 0,-0.50165 -0.200025,-1.0795 -0.517525,-1.495425 h -0.174625 c 0.2794,0.454025 0.434975,0.987425 0.434975,1.495425 0,0.504825 -0.155575,1.0414 -0.434975,1.49225 z"
         id="path47953" />
    </g>
    <g
       aria-label="Add Decoys"
       id="text2841"
       style="font-size:3.175px;stroke-width:0.264583"
       transform="translate(24.15593,172.97018)">
      <path
         d="m 16.196356,45.162749 0.238125,0.695325 h 0.3302 l -0.8128,-2.314575 h -0.381 l -0.8255,2.314575 h 0.314325 l 0.244475,-0.695325 z m -0.08255,-0.24765 h -0.7366 l 0.381,-1.0541 z"
         id="path47956" />
      <path
         d="m 18.358531,43.543499 h -0.263525 v 0.860425 c -0.111125,-0.168275 -0.288925,-0.257175 -0.511175,-0.257175 -0.4318,0 -0.714375,0.346075 -0.714375,0.8763 0,0.561975 0.27305,0.90805 0.7239,0.90805 0.2286,0 0.38735,-0.08573 0.530225,-0.2921 v 0.219075 h 0.23495 z m -0.73025,0.8509 c 0.28575,0 0.466725,0.250825 0.466725,0.650875 0,0.384175 -0.18415,0.638175 -0.46355,0.638175 -0.2921,0 -0.485775,-0.257175 -0.485775,-0.644525 0,-0.38735 0.193675,-0.644525 0.4826,-0.644525 z"
         id="path47958" />
      <path
         d="m 20.12383,43.543499 h -0.263525 v 0.860425 C 19.74918,44.235649 19.57138,44.146749 19.34913,44.146749 c -0.4318,0 -0.714375,0.346075 -0.714375,0.8763 0,0.561975 0.27305,0.90805 0.7239,0.90805 0.2286,0 0.38735,-0.08573 0.530225,-0.2921 v 0.219075 h 0.23495 z m -0.73025,0.8509 c 0.28575,0 0.466725,0.250825 0.466725,0.650875 0,0.384175 -0.18415,0.638175 -0.46355,0.638175 -0.2921,0 -0.485775,-0.257175 -0.485775,-0.644525 0,-0.38735 0.193675,-0.644525 0.4826,-0.644525 z"
         id="path47960" />
      <path
         d="m 21.482729,45.858074 h 0.892175 c 0.5842,0 0.942975,-0.43815 0.942975,-1.158875 0,-0.71755 -0.3556,-1.1557 -0.942975,-1.1557 h -0.892175 z m 0.295275,-0.26035 v -1.793875 h 0.5461 c 0.4572,0 0.6985,0.307975 0.6985,0.898525 0,0.587375 -0.2413,0.89535 -0.6985,0.89535 z"
         id="path47962" />
      <path
         d="m 25.111753,45.115124 c 0,-0.254 -0.01905,-0.4064 -0.06668,-0.530225 -0.10795,-0.27305 -0.36195,-0.43815 -0.6731,-0.43815 -0.46355,0 -0.762,0.352425 -0.762,0.9017 0,0.549275 0.28575,0.88265 0.75565,0.88265 0.381,0 0.644525,-0.2159 0.7112,-0.57785 h -0.2667 c -0.07302,0.219075 -0.22225,0.333375 -0.434975,0.333375 -0.168275,0 -0.31115,-0.0762 -0.40005,-0.2159 -0.0635,-0.09525 -0.08573,-0.1905 -0.0889,-0.3556 z m -1.2192,-0.2159 c 0.02222,-0.307975 0.20955,-0.508 0.47625,-0.508 0.269875,0 0.4572,0.20955 0.4572,0.508 z"
         id="path47964" />
      <path
         d="m 26.743703,44.753174 c -0.0127,-0.161925 -0.04763,-0.2667 -0.111125,-0.358775 -0.1143,-0.155575 -0.314325,-0.24765 -0.5461,-0.24765 -0.45085,0 -0.739775,0.3556 -0.739775,0.90805 0,0.536575 0.28575,0.8763 0.7366,0.8763 0.396875,0 0.6477,-0.238125 0.67945,-0.644525 h -0.2667 c -0.04445,0.2667 -0.180975,0.40005 -0.4064,0.40005 -0.2921,0 -0.466725,-0.238125 -0.466725,-0.631825 0,-0.415925 0.17145,-0.663575 0.460375,-0.663575 0.22225,0 0.36195,0.130175 0.3937,0.36195 z"
         id="path47966" />
      <path
         d="m 27.724776,44.146749 c -0.4699,0 -0.7493,0.333375 -0.7493,0.892175 0,0.561975 0.2794,0.892175 0.752475,0.892175 0.4699,0 0.752475,-0.333375 0.752475,-0.879475 0,-0.57785 -0.27305,-0.904875 -0.75565,-0.904875 z m 0.0032,0.244475 c 0.29845,0 0.47625,0.244475 0.47625,0.657225 0,0.3937 -0.18415,0.638175 -0.47625,0.638175 -0.295275,0 -0.47625,-0.244475 -0.47625,-0.6477 0,-0.403225 0.180975,-0.6477 0.47625,-0.6477 z"
         id="path47968" />
      <path
         d="m 29.782174,44.194374 -0.460375,1.2954 -0.42545,-1.2954 h -0.282575 l 0.561975,1.67005 -0.1016,0.263525 c -0.04445,0.117475 -0.1016,0.161925 -0.212725,0.161925 -0.04445,0 -0.08255,-0.0063 -0.1397,-0.01905 v 0.238125 c 0.05398,0.02857 0.10795,0.04127 0.1778,0.04127 0.08573,0 0.1778,-0.02858 0.24765,-0.07937 0.08255,-0.06032 0.130175,-0.130175 0.180975,-0.263525 l 0.739775,-2.01295 z"
         id="path47970" />
      <path
         d="m 31.487148,44.657924 c -0.0032,-0.327025 -0.219075,-0.511175 -0.60325,-0.511175 -0.38735,0 -0.638175,0.200025 -0.638175,0.508 0,0.26035 0.13335,0.384175 0.52705,0.479425 l 0.24765,0.06032 c 0.18415,0.04445 0.257175,0.111125 0.257175,0.2286 0,0.15875 -0.155575,0.263525 -0.38735,0.263525 -0.142875,0 -0.263525,-0.04127 -0.3302,-0.111125 -0.04127,-0.04763 -0.06032,-0.09525 -0.0762,-0.212725 h -0.2794 c 0.0127,0.384175 0.2286,0.568325 0.663575,0.568325 0.4191,0 0.6858,-0.206375 0.6858,-0.52705 0,-0.24765 -0.1397,-0.384175 -0.4699,-0.46355 l -0.254,-0.06033 c -0.2159,-0.0508 -0.307975,-0.12065 -0.307975,-0.238125 0,-0.155575 0.136525,-0.250825 0.352425,-0.250825 0.212725,0 0.327025,0.09208 0.333375,0.2667 z"
         id="path47972" />
    </g>
    <g
       aria-label="In-Silico Digestion"
       id="text2845"
       style="font-size:3.175px;stroke-width:0.264583"
       transform="translate(24.15593,172.97018)">
      <path
         d="m 11.653397,59.504647 h -0.29845 v 2.314574 h 0.29845 z"
         id="path47975" />
      <path
         d="m 12.142347,60.155522 v 1.663699 h 0.2667 v -0.917574 c 0,-0.339725 0.1778,-0.561975 0.45085,-0.561975 0.20955,0 0.3429,0.127 0.3429,0.327025 v 1.152524 h 0.263525 v -1.257299 c 0,-0.276225 -0.206375,-0.454025 -0.52705,-0.454025 -0.24765,0 -0.4064,0.09525 -0.55245,0.327025 v -0.2794 z"
         id="path47977" />
      <path
         d="m 14.587096,60.828622 h -0.75565 v 0.2286 h 0.75565 z"
         id="path47979" />
      <path
         d="m 16.657196,60.184097 c 0,-0.15875 -0.0095,-0.2032 -0.06032,-0.31115 -0.127,-0.2667 -0.396875,-0.4064 -0.7874,-0.4064 -0.508,0 -0.822325,0.26035 -0.822325,0.67945 0,0.282575 0.149225,0.460375 0.454025,0.53975 l 0.574675,0.1524 c 0.295275,0.0762 0.42545,0.193675 0.42545,0.37465 0,0.123825 -0.06668,0.250825 -0.1651,0.320675 -0.09207,0.06667 -0.238125,0.09842 -0.42545,0.09842 -0.254,0 -0.422275,-0.06032 -0.5334,-0.193674 -0.08573,-0.1016 -0.123825,-0.212725 -0.12065,-0.3556 h -0.2794 c 0.0032,0.212725 0.04445,0.352425 0.136525,0.479425 0.15875,0.219074 0.42545,0.330199 0.777875,0.330199 0.276225,0 0.50165,-0.0635 0.650875,-0.1778 0.155575,-0.123824 0.254,-0.330199 0.254,-0.530224 0,-0.28575 -0.1778,-0.4953 -0.492125,-0.581025 l -0.581025,-0.155575 c -0.2794,-0.0762 -0.381,-0.1651 -0.381,-0.3429 0,-0.23495 0.206375,-0.390525 0.517525,-0.390525 0.3683,0 0.574675,0.1651 0.57785,0.4699 z"
         id="path47981" />
      <path
         d="M 17.349345,60.155522 H 17.08582 v 1.663699 h 0.263525 z m 0,-0.650875 h -0.2667 v 0.333375 h 0.2667 z"
         id="path47983" />
      <path
         d="m 18.060545,59.504647 h -0.2667 v 2.314574 h 0.2667 z"
         id="path47985" />
      <path
         d="M 18.759045,60.155522 H 18.49552 v 1.663699 h 0.263525 z m 0,-0.650875 h -0.2667 v 0.333375 h 0.2667 z"
         id="path47987" />
      <path
         d="m 20.483071,60.714322 c -0.0127,-0.161925 -0.04763,-0.2667 -0.111125,-0.358775 -0.1143,-0.155575 -0.314325,-0.24765 -0.5461,-0.24765 -0.45085,0 -0.739775,0.3556 -0.739775,0.90805 0,0.536575 0.28575,0.876299 0.7366,0.876299 0.396875,0 0.6477,-0.238125 0.67945,-0.644524 h -0.2667 c -0.04445,0.2667 -0.180975,0.400049 -0.4064,0.400049 -0.2921,0 -0.466725,-0.238124 -0.466725,-0.631824 0,-0.415925 0.17145,-0.663575 0.460375,-0.663575 0.22225,0 0.36195,0.130175 0.3937,0.36195 z"
         id="path47989" />
      <path
         d="m 21.464144,60.107897 c -0.4699,0 -0.7493,0.333375 -0.7493,0.892175 0,0.561975 0.2794,0.892174 0.752475,0.892174 0.4699,0 0.752475,-0.333374 0.752475,-0.879474 0,-0.57785 -0.27305,-0.904875 -0.75565,-0.904875 z m 0.0032,0.244475 c 0.29845,0 0.47625,0.244475 0.47625,0.657225 0,0.3937 -0.18415,0.638174 -0.47625,0.638174 -0.295275,0 -0.47625,-0.244474 -0.47625,-0.647699 0,-0.403225 0.180975,-0.6477 0.47625,-0.6477 z"
         id="path47991" />
      <path
         d="m 23.531068,61.819221 h 0.892175 c 0.5842,0 0.942975,-0.438149 0.942975,-1.158874 0,-0.71755 -0.3556,-1.1557 -0.942975,-1.1557 h -0.892175 z m 0.295275,-0.260349 v -1.793875 h 0.5461 c 0.4572,0 0.6985,0.307975 0.6985,0.898525 0,0.587375 -0.2413,0.89535 -0.6985,0.89535 z"
         id="path47993" />
      <path
         d="m 26.017093,60.155522 h -0.263525 v 1.663699 h 0.263525 z m 0,-0.650875 h -0.2667 v 0.333375 h 0.2667 z"
         id="path47995" />
      <path
         d="m 27.52522,60.155522 v 0.2413 c -0.13335,-0.200025 -0.2794,-0.288925 -0.48895,-0.288925 -0.403225,0 -0.682625,0.37465 -0.682625,0.90805 0,0.2794 0.06668,0.4826 0.20955,0.650874 0.123825,0.14605 0.282575,0.225425 0.454025,0.225425 0.200025,0 0.3429,-0.0889 0.4826,-0.29845 v 0.08573 c 0,0.4445 -0.123825,0.6096 -0.454025,0.6096 -0.225425,0 -0.3429,-0.0889 -0.3683,-0.2794 H 26.40762 c 0.0254,0.307975 0.269875,0.50165 0.631825,0.50165 0.244475,0 0.447675,-0.07937 0.555625,-0.212725 0.127,-0.155575 0.174625,-0.36195 0.174625,-0.752474 v -1.39065 z m -0.46355,0.19685 c 0.2794,0 0.43815,0.23495 0.43815,0.657225 0,0.403225 -0.161925,0.638174 -0.43815,0.638174 -0.27305,0 -0.4318,-0.238124 -0.4318,-0.647699 0,-0.4064 0.15875,-0.6477 0.4318,-0.6477 z"
         id="path47997" />
      <path
         d="m 29.620722,61.076272 c 0,-0.254 -0.01905,-0.4064 -0.06668,-0.530225 -0.10795,-0.27305 -0.36195,-0.43815 -0.6731,-0.43815 -0.46355,0 -0.762,0.352425 -0.762,0.9017 0,0.549275 0.28575,0.882649 0.75565,0.882649 0.381,0 0.644525,-0.2159 0.7112,-0.577849 h -0.2667 c -0.07302,0.219075 -0.22225,0.333374 -0.434975,0.333374 -0.168275,0 -0.31115,-0.0762 -0.40005,-0.215899 -0.0635,-0.09525 -0.08573,-0.1905 -0.0889,-0.3556 z m -1.2192,-0.2159 c 0.02222,-0.307975 0.20955,-0.508 0.47625,-0.508 0.269875,0 0.4572,0.20955 0.4572,0.508 z"
         id="path47999" />
      <path
         d="m 31.135197,60.619072 c -0.0032,-0.327025 -0.219075,-0.511175 -0.60325,-0.511175 -0.38735,0 -0.638175,0.200025 -0.638175,0.508 0,0.26035 0.13335,0.384175 0.52705,0.479425 l 0.24765,0.06032 c 0.18415,0.04445 0.257175,0.111125 0.257175,0.2286 0,0.15875 -0.155575,0.263524 -0.38735,0.263524 -0.142875,0 -0.263525,-0.04127 -0.3302,-0.111124 -0.04127,-0.04763 -0.06032,-0.09525 -0.0762,-0.212725 h -0.2794 c 0.0127,0.384174 0.2286,0.568324 0.663575,0.568324 0.4191,0 0.6858,-0.206375 0.6858,-0.527049 0,-0.24765 -0.1397,-0.384175 -0.4699,-0.46355 l -0.254,-0.06032 c -0.2159,-0.0508 -0.307975,-0.12065 -0.307975,-0.238125 0,-0.155575 0.136525,-0.250825 0.352425,-0.250825 0.212725,0 0.327025,0.09207 0.333375,0.2667 z"
         id="path48001" />
      <path
         d="m 32.128971,60.155522 h -0.27305 v -0.4572 h -0.263525 v 0.4572 h -0.225425 v 0.2159 h 0.225425 v 1.257299 c 0,0.17145 0.1143,0.263525 0.320675,0.263525 0.06985,0 0.127,-0.0063 0.2159,-0.02222 v -0.22225 c -0.0381,0.0095 -0.07303,0.0127 -0.127,0.0127 -0.1143,0 -0.14605,-0.03175 -0.14605,-0.149224 v -1.139825 h 0.27305 z"
         id="path48003" />
      <path
         d="m 32.665549,60.155522 h -0.263525 v 1.663699 h 0.263525 z m 0,-0.650875 h -0.2667 v 0.333375 h 0.2667 z"
         id="path48005" />
      <path
         d="m 33.75775,60.107897 c -0.4699,0 -0.7493,0.333375 -0.7493,0.892175 0,0.561975 0.2794,0.892174 0.752475,0.892174 0.4699,0 0.752475,-0.333374 0.752475,-0.879474 0,-0.57785 -0.27305,-0.904875 -0.75565,-0.904875 z m 0.0032,0.244475 c 0.29845,0 0.47625,0.244475 0.47625,0.657225 0,0.3937 -0.18415,0.638174 -0.47625,0.638174 -0.295275,0 -0.47625,-0.244474 -0.47625,-0.647699 0,-0.403225 0.180975,-0.6477 0.47625,-0.6477 z"
         id="path48007" />
      <path
         d="m 34.881699,60.155522 v 1.663699 h 0.2667 v -0.917574 c 0,-0.339725 0.1778,-0.561975 0.45085,-0.561975 0.20955,0 0.3429,0.127 0.3429,0.327025 v 1.152524 h 0.263525 v -1.257299 c 0,-0.276225 -0.206375,-0.454025 -0.52705,-0.454025 -0.24765,0 -0.4064,0.09525 -0.55245,0.327025 v -0.2794 z"
         id="path48009" />
    </g>
    <g
       aria-label="Filtering"
       id="text2849"
       style="font-size:3.175px;stroke-width:0.264583"
       transform="translate(24.15593,172.97018)">
      <path
         d="m 16.938393,74.27359 h 1.1049 v -0.26035 h -1.1049 v -0.739775 h 1.2573 v -0.26035 h -1.552575 v 2.314575 h 0.295275 z"
         id="path48012" />
      <path
         d="m 18.741793,73.66399 h -0.263525 v 1.6637 h 0.263525 z m 0,-0.650875 h -0.2667 v 0.333375 h 0.2667 z"
         id="path48014" />
      <path
         d="m 19.452993,73.013115 h -0.2667 v 2.314575 h 0.2667 z"
         id="path48016" />
      <path
         d="m 20.481694,73.66399 h -0.27305 v -0.4572 h -0.263525 v 0.4572 h -0.225425 v 0.2159 h 0.225425 v 1.2573 c 0,0.17145 0.1143,0.263525 0.320675,0.263525 0.06985,0 0.127,-0.0064 0.2159,-0.02223 v -0.22225 c -0.0381,0.0095 -0.07303,0.0127 -0.127,0.0127 -0.1143,0 -0.14605,-0.03175 -0.14605,-0.149225 v -1.13982 h 0.27305 z"
         id="path48018" />
      <path
         d="m 22.142218,74.58474 c 0,-0.254 -0.01905,-0.4064 -0.06668,-0.530225 -0.10795,-0.27305 -0.36195,-0.43815 -0.6731,-0.43815 -0.46355,0 -0.762,0.352425 -0.762,0.9017 0,0.549275 0.28575,0.88265 0.75565,0.88265 0.381,0 0.644525,-0.2159 0.7112,-0.57785 h -0.2667 c -0.07302,0.219075 -0.22225,0.333375 -0.434975,0.333375 -0.168275,0 -0.31115,-0.0762 -0.40005,-0.2159 -0.0635,-0.09525 -0.08573,-0.1905 -0.0889,-0.3556 z m -1.2192,-0.2159 c 0.02223,-0.307975 0.20955,-0.508 0.47625,-0.508 0.269875,0 0.4572,0.20955 0.4572,0.508 z"
         id="path48020" />
      <path
         d="m 22.497818,73.66399 v 1.6637 h 0.2667 v -0.8636 c 0.0032,-0.40005 0.168275,-0.57785 0.5334,-0.568325 V 73.62589 c -0.04445,-0.0063 -0.06985,-0.0095 -0.1016,-0.0095 -0.17145,0 -0.301625,0.1016 -0.454025,0.34925 v -0.30165 z"
         id="path48022" />
      <path
         d="m 23.815441,73.66399 h -0.263525 v 1.6637 h 0.263525 z m 0,-0.650875 h -0.2667 v 0.333375 h 0.2667 z"
         id="path48024" />
      <path
         d="m 24.266292,73.66399 v 1.6637 h 0.2667 v -0.917575 c 0,-0.339725 0.1778,-0.561975 0.45085,-0.561975 0.20955,0 0.3429,0.127 0.3429,0.327025 v 1.152525 h 0.263525 v -1.2573 c 0,-0.276225 -0.206375,-0.454025 -0.52705,-0.454025 -0.24765,0 -0.4064,0.09525 -0.55245,0.327025 v -0.2794 z"
         id="path48026" />
      <path
         d="m 27.092041,73.66399 v 0.2413 c -0.13335,-0.200025 -0.2794,-0.288925 -0.48895,-0.288925 -0.403225,0 -0.682625,0.37465 -0.682625,0.90805 0,0.2794 0.06668,0.4826 0.20955,0.650875 0.123825,0.14605 0.282575,0.225425 0.454025,0.225425 0.200025,0 0.3429,-0.0889 0.4826,-0.29845 v 0.08572 c 0,0.4445 -0.123825,0.6096 -0.454025,0.6096 -0.225425,0 -0.3429,-0.0889 -0.3683,-0.2794 h -0.269875 c 0.0254,0.307975 0.269875,0.50165 0.631825,0.50165 0.244475,0 0.447675,-0.07937 0.555625,-0.212725 0.127,-0.155575 0.174625,-0.36195 0.174625,-0.752475 v -1.39065 z m -0.46355,0.19685 c 0.2794,0 0.43815,0.23495 0.43815,0.657225 0,0.403225 -0.161925,0.638175 -0.43815,0.638175 -0.27305,0 -0.4318,-0.238125 -0.4318,-0.6477 0,-0.4064 0.15875,-0.6477 0.4318,-0.6477 z"
         id="path48028" />
    </g>
    <g
       aria-label="Scoring"
       id="text2853"
       style="font-size:3.175px;stroke-width:0.264583"
       transform="translate(24.15593,172.97018)">
      <path
         d="m 19.433861,90.806716 c 0,-0.15875 -0.0095,-0.2032 -0.06032,-0.31115 -0.127,-0.2667 -0.396875,-0.4064 -0.7874,-0.4064 -0.508,0 -0.822325,0.26035 -0.822325,0.67945 0,0.282575 0.149225,0.460375 0.454025,0.53975 l 0.574675,0.1524 c 0.295275,0.0762 0.42545,0.193675 0.42545,0.37465 0,0.123825 -0.06668,0.250825 -0.1651,0.320675 -0.09208,0.06667 -0.238125,0.09842 -0.42545,0.09842 -0.254,0 -0.422275,-0.06032 -0.5334,-0.193675 -0.08573,-0.1016 -0.123825,-0.212725 -0.12065,-0.3556 h -0.2794 c 0.0032,0.212725 0.04445,0.352425 0.136525,0.479425 0.15875,0.219075 0.42545,0.3302 0.777875,0.3302 0.276225,0 0.50165,-0.0635 0.650875,-0.1778 0.155575,-0.123825 0.254,-0.3302 0.254,-0.530225 0,-0.28575 -0.1778,-0.4953 -0.492125,-0.581025 l -0.581025,-0.155575 c -0.2794,-0.0762 -0.381,-0.1651 -0.381,-0.3429 0,-0.23495 0.206375,-0.390525 0.517525,-0.390525 0.3683,0 0.574675,0.1651 0.57785,0.4699 z"
         id="path48031" />
      <path
         d="m 21.154711,91.336941 c -0.0127,-0.161925 -0.04763,-0.2667 -0.111125,-0.358775 -0.1143,-0.155575 -0.314325,-0.24765 -0.5461,-0.24765 -0.45085,0 -0.739775,0.3556 -0.739775,0.90805 0,0.536575 0.28575,0.8763 0.7366,0.8763 0.396875,0 0.6477,-0.238125 0.67945,-0.644525 h -0.2667 c -0.04445,0.2667 -0.180975,0.40005 -0.4064,0.40005 -0.2921,0 -0.466725,-0.238125 -0.466725,-0.631825 0,-0.415925 0.17145,-0.663575 0.460375,-0.663575 0.22225,0 0.36195,0.130175 0.3937,0.36195 z"
         id="path48033" />
      <path
         d="m 22.135784,90.730516 c -0.4699,0 -0.7493,0.333375 -0.7493,0.892175 0,0.561975 0.2794,0.892175 0.752475,0.892175 0.4699,0 0.752475,-0.333375 0.752475,-0.879475 0,-0.57785 -0.27305,-0.904875 -0.75565,-0.904875 z m 0.0032,0.244475 c 0.29845,0 0.47625,0.244475 0.47625,0.657225 0,0.3937 -0.18415,0.638175 -0.47625,0.638175 -0.295275,0 -0.47625,-0.244475 -0.47625,-0.6477 0,-0.403225 0.180975,-0.6477 0.47625,-0.6477 z"
         id="path48035" />
      <path
         d="m 23.256558,90.778141 v 1.6637 h 0.2667 v -0.8636 c 0.0032,-0.40005 0.168275,-0.57785 0.5334,-0.568325 v -0.269875 c -0.04445,-0.0064 -0.06985,-0.0095 -0.1016,-0.0095 -0.17145,0 -0.301625,0.1016 -0.454025,0.34925 v -0.301625 z"
         id="path48037" />
      <path
         d="m 24.574182,90.778141 h -0.263525 v 1.6637 h 0.263525 z m 0,-0.650875 h -0.2667 v 0.333375 h 0.2667 z"
         id="path48039" />
      <path
         d="m 25.025032,90.778141 v 1.6637 h 0.2667 v -0.917575 c 0,-0.339725 0.1778,-0.561975 0.45085,-0.561975 0.20955,0 0.3429,0.127 0.3429,0.327025 v 1.152525 h 0.263525 v -1.2573 c 0,-0.276225 -0.206375,-0.454025 -0.52705,-0.454025 -0.24765,0 -0.4064,0.09525 -0.55245,0.327025 v -0.2794 z"
         id="path48041" />
      <path
         d="m 27.850781,90.778141 v 0.2413 c -0.13335,-0.200025 -0.2794,-0.288925 -0.48895,-0.288925 -0.403225,0 -0.682625,0.37465 -0.682625,0.90805 0,0.2794 0.06668,0.4826 0.20955,0.650875 0.123825,0.14605 0.282575,0.225425 0.454025,0.225425 0.200025,0 0.3429,-0.0889 0.4826,-0.29845 v 0.08573 c 0,0.4445 -0.123825,0.6096 -0.454025,0.6096 -0.225425,0 -0.3429,-0.0889 -0.3683,-0.2794 h -0.269875 c 0.0254,0.307975 0.269875,0.50165 0.631825,0.50165 0.244475,0 0.447675,-0.07937 0.555625,-0.212725 0.127,-0.155575 0.174625,-0.36195 0.174625,-0.752475 v -1.39065 z m -0.46355,0.19685 c 0.2794,0 0.43815,0.23495 0.43815,0.657225 0,0.403225 -0.161925,0.638175 -0.43815,0.638175 -0.27305,0 -0.4318,-0.238125 -0.4318,-0.6477 0,-0.4064 0.15875,-0.6477 0.4318,-0.6477 z"
         id="path48043" />
    </g>
    <g
       aria-label="Rescoring"
       id="text2857"
       style="font-size:3.175px;stroke-width:0.264583"
       transform="translate(-15.513037,172.97018)">
      <path
         d="m 57.061921,108.55936 h 0.762 c 0.263525,0 0.381,0.127 0.381,0.41275 l -0.0032,0.20638 c 0,0.14287 0.0254,0.28257 0.06667,0.37782 h 0.358775 v -0.073 c -0.111125,-0.0762 -0.13335,-0.15875 -0.1397,-0.46673 -0.0032,-0.381 -0.0635,-0.4953 -0.314325,-0.60325 0.26035,-0.13017 0.365125,-0.28575 0.365125,-0.55245 0,-0.40005 -0.24765,-0.61912 -0.70485,-0.61912 h -1.0668 v 2.31457 h 0.295275 z m 0,-0.26035 v -0.79692 h 0.714375 c 0.1651,0 0.26035,0.0254 0.333375,0.0889 0.07937,0.0667 0.12065,0.17145 0.12065,0.30797 0,0.27623 -0.1397,0.40005 -0.454025,0.40005 z"
         id="path48075" />
      <path
         d="m 60.360745,108.81336 c 0,-0.254 -0.01905,-0.4064 -0.06668,-0.53022 -0.10795,-0.27305 -0.36195,-0.43815 -0.6731,-0.43815 -0.46355,0 -0.762,0.35242 -0.762,0.9017 0,0.54927 0.28575,0.88265 0.75565,0.88265 0.381,0 0.644525,-0.2159 0.7112,-0.57785 h -0.2667 c -0.07303,0.21907 -0.22225,0.33337 -0.434975,0.33337 -0.168275,0 -0.31115,-0.0762 -0.40005,-0.2159 -0.0635,-0.0952 -0.08572,-0.1905 -0.0889,-0.3556 z m -1.2192,-0.2159 c 0.02222,-0.30797 0.20955,-0.508 0.47625,-0.508 0.269875,0 0.4572,0.20955 0.4572,0.508 z"
         id="path48077" />
      <path
         d="m 61.87522,108.35616 c -0.0032,-0.32702 -0.219075,-0.51117 -0.60325,-0.51117 -0.38735,0 -0.638174,0.20002 -0.638174,0.508 0,0.26035 0.133349,0.38417 0.527049,0.47942 l 0.24765,0.0603 c 0.18415,0.0444 0.257175,0.11112 0.257175,0.2286 0,0.15875 -0.155575,0.26352 -0.38735,0.26352 -0.142875,0 -0.263525,-0.0413 -0.3302,-0.11112 -0.04128,-0.0476 -0.06033,-0.0953 -0.0762,-0.21273 h -0.279399 c 0.0127,0.38418 0.228599,0.56833 0.663574,0.56833 0.4191,0 0.6858,-0.20638 0.6858,-0.52705 0,-0.24765 -0.1397,-0.38418 -0.4699,-0.46355 l -0.254,-0.0603 c -0.2159,-0.0508 -0.307975,-0.12065 -0.307975,-0.23812 0,-0.15558 0.136525,-0.25083 0.352425,-0.25083 0.212725,0 0.327025,0.0921 0.333375,0.2667 z"
         id="path48079" />
      <path
         d="m 63.567495,108.45141 c -0.0127,-0.16192 -0.04763,-0.2667 -0.111125,-0.35877 -0.1143,-0.15558 -0.314325,-0.24765 -0.5461,-0.24765 -0.45085,0 -0.739775,0.3556 -0.739775,0.90805 0,0.53657 0.28575,0.8763 0.7366,0.8763 0.396875,0 0.6477,-0.23813 0.67945,-0.64453 h -0.2667 c -0.04445,0.2667 -0.180975,0.40005 -0.4064,0.40005 -0.2921,0 -0.466725,-0.23812 -0.466725,-0.63182 0,-0.41593 0.17145,-0.66358 0.460375,-0.66358 0.22225,0 0.36195,0.13018 0.3937,0.36195 z"
         id="path48081" />
      <path
         d="m 64.548568,107.84499 c -0.4699,0 -0.7493,0.33337 -0.7493,0.89217 0,0.56198 0.2794,0.89218 0.752475,0.89218 0.4699,0 0.752475,-0.33338 0.752475,-0.87948 0,-0.57785 -0.27305,-0.90487 -0.75565,-0.90487 z m 0.0032,0.24447 c 0.29845,0 0.47625,0.24448 0.47625,0.65723 0,0.3937 -0.18415,0.63817 -0.47625,0.63817 -0.295275,0 -0.47625,-0.24447 -0.47625,-0.6477 0,-0.40322 0.180975,-0.6477 0.47625,-0.6477 z"
         id="path48083" />
      <path
         d="m 65.669343,107.89261 v 1.6637 h 0.2667 v -0.8636 c 0.0032,-0.40005 0.168275,-0.57785 0.5334,-0.56832 v -0.26988 c -0.04445,-0.006 -0.06985,-0.01 -0.1016,-0.01 -0.17145,0 -0.301625,0.1016 -0.454025,0.34925 v -0.30163 z"
         id="path48085" />
      <path
         d="m 66.986966,107.89261 h -0.263525 v 1.6637 h 0.263525 z m 0,-0.65087 h -0.2667 v 0.33337 h 0.2667 z"
         id="path48087" />
      <path
         d="m 67.437817,107.89261 v 1.6637 h 0.2667 v -0.91757 c 0,-0.33973 0.1778,-0.56198 0.45085,-0.56198 0.20955,0 0.3429,0.127 0.3429,0.32703 v 1.15252 h 0.263525 v -1.2573 c 0,-0.27622 -0.206375,-0.45402 -0.52705,-0.45402 -0.24765,0 -0.4064,0.0953 -0.55245,0.32702 v -0.2794 z"
         id="path48089" />
      <path
         d="m 70.263566,107.89261 v 0.2413 c -0.13335,-0.20002 -0.2794,-0.28892 -0.48895,-0.28892 -0.403225,0 -0.682625,0.37465 -0.682625,0.90805 0,0.2794 0.06668,0.4826 0.20955,0.65087 0.123825,0.14605 0.282575,0.22543 0.454025,0.22543 0.200025,0 0.3429,-0.0889 0.4826,-0.29845 v 0.0857 c 0,0.4445 -0.123825,0.6096 -0.454025,0.6096 -0.225425,0 -0.3429,-0.0889 -0.3683,-0.2794 h -0.269875 c 0.0254,0.30798 0.269875,0.50165 0.631825,0.50165 0.244475,0 0.447675,-0.0794 0.555625,-0.21272 0.127,-0.15558 0.174625,-0.36195 0.174625,-0.75248 v -1.39065 z m -0.46355,0.19685 c 0.2794,0 0.43815,0.23495 0.43815,0.65723 0,0.40322 -0.161925,0.63817 -0.43815,0.63817 -0.27305,0 -0.4318,-0.23812 -0.4318,-0.6477 0,-0.4064 0.15875,-0.6477 0.4318,-0.6477 z"
         id="path48091" />
    </g>
    <g
       aria-label="Reporting"
       id="text2865"
       style="font-size:3.175px;text-align:center;text-anchor:middle;stroke-width:0.264583"
       transform="translate(-14.399972,172.97018)">
      <path
         d="m 88.789892,107.85842 h 0.762 c 0.263525,0 0.381,0.127 0.381,0.41275 l -0.0032,0.20637 c 0,0.14288 0.0254,0.28258 0.06668,0.37783 h 0.358775 v -0.073 c -0.111125,-0.0762 -0.13335,-0.15875 -0.1397,-0.46672 -0.0032,-0.381 -0.0635,-0.4953 -0.314325,-0.60325 0.26035,-0.13018 0.365125,-0.28575 0.365125,-0.55245 0,-0.40005 -0.24765,-0.61913 -0.70485,-0.61913 h -1.0668 v 2.31458 h 0.295275 z m 0,-0.26035 v -0.79693 h 0.714375 c 0.1651,0 0.26035,0.0254 0.333375,0.0889 0.07937,0.0667 0.12065,0.17145 0.12065,0.30798 0,0.27622 -0.1397,0.40005 -0.454025,0.40005 z"
         id="path48094" />
      <path
         d="m 92.088716,108.11242 c 0,-0.254 -0.01905,-0.4064 -0.06668,-0.53023 -0.10795,-0.27305 -0.36195,-0.43815 -0.6731,-0.43815 -0.46355,0 -0.762,0.35243 -0.762,0.9017 0,0.54928 0.28575,0.88265 0.75565,0.88265 0.381,0 0.644525,-0.2159 0.7112,-0.57785 h -0.2667 c -0.07303,0.21908 -0.22225,0.33338 -0.434975,0.33338 -0.168275,0 -0.31115,-0.0762 -0.40005,-0.2159 -0.0635,-0.0952 -0.08572,-0.1905 -0.0889,-0.3556 z m -1.2192,-0.2159 c 0.02222,-0.30798 0.20955,-0.508 0.47625,-0.508 0.269875,0 0.4572,0.20955 0.4572,0.508 z"
         id="path48096" />
      <path
         d="m 92.396691,109.54752 h 0.2667 v -0.86678 c 0.1397,0.17145 0.295275,0.24765 0.511175,0.24765 0.4318,0 0.7112,-0.34607 0.7112,-0.8763 0,-0.5588 -0.27305,-0.90805 -0.714375,-0.90805 -0.225425,0 -0.4064,0.1016 -0.530225,0.29845 v -0.25082 h -0.244475 z m 0.73025,-2.15583 c 0.2921,0 0.4826,0.25718 0.4826,0.65405 0,0.37783 -0.193675,0.635 -0.4826,0.635 -0.282575,0 -0.46355,-0.254 -0.46355,-0.64452 0,-0.39053 0.180975,-0.64453 0.46355,-0.64453 z"
         id="path48098" />
      <path
         d="m 94.85414,107.14404 c -0.4699,0 -0.7493,0.33338 -0.7493,0.89218 0,0.56197 0.2794,0.89217 0.752475,0.89217 0.4699,0 0.752475,-0.33337 0.752475,-0.87947 0,-0.57785 -0.27305,-0.90488 -0.75565,-0.90488 z m 0.0032,0.24448 c 0.29845,0 0.47625,0.24447 0.47625,0.65722 0,0.3937 -0.18415,0.63818 -0.47625,0.63818 -0.295275,0 -0.47625,-0.24448 -0.47625,-0.6477 0,-0.40323 0.180975,-0.6477 0.47625,-0.6477 z"
         id="path48100" />
      <path
         d="m 95.974914,107.19167 v 1.6637 h 0.2667 v -0.8636 c 0.0032,-0.40005 0.168275,-0.57785 0.5334,-0.56833 v -0.26987 c -0.04445,-0.006 -0.06985,-0.01 -0.1016,-0.01 -0.17145,0 -0.301625,0.1016 -0.454025,0.34925 v -0.30162 z"
         id="path48102" />
      <path
         d="m 97.705291,107.19167 h -0.27305 v -0.4572 h -0.263525 v 0.4572 h -0.225425 v 0.2159 h 0.225425 v 1.2573 c 0,0.17145 0.1143,0.26352 0.320675,0.26352 0.06985,0 0.127,-0.006 0.2159,-0.0222 v -0.22225 c -0.0381,0.01 -0.07303,0.0127 -0.127,0.0127 -0.1143,0 -0.14605,-0.0318 -0.14605,-0.14923 v -1.13982 h 0.27305 z"
         id="path48104" />
      <path
         d="m 98.241868,107.19167 h -0.263525 v 1.6637 h 0.263525 z m 0,-0.65088 h -0.2667 v 0.33338 h 0.2667 z"
         id="path48106" />
      <path
         d="m 98.692719,107.19167 v 1.6637 h 0.2667 v -0.91758 c 0,-0.33972 0.1778,-0.56197 0.45085,-0.56197 0.20955,0 0.3429,0.127 0.3429,0.32702 v 1.15253 h 0.263521 v -1.2573 c 0,-0.27623 -0.206371,-0.45403 -0.527046,-0.45403 -0.24765,0 -0.4064,0.0952 -0.55245,0.32703 v -0.2794 z"
         id="path48108" />
      <path
         d="m 101.51847,107.19167 v 0.2413 c -0.13335,-0.20003 -0.2794,-0.28893 -0.48895,-0.28893 -0.40323,0 -0.68263,0.37465 -0.68263,0.90805 0,0.2794 0.0667,0.4826 0.20955,0.65088 0.12383,0.14605 0.28258,0.22542 0.45403,0.22542 0.20002,0 0.3429,-0.0889 0.4826,-0.29845 v 0.0857 c 0,0.4445 -0.12383,0.6096 -0.45403,0.6096 -0.22542,0 -0.3429,-0.0889 -0.3683,-0.2794 h -0.26987 c 0.0254,0.30797 0.26987,0.50165 0.63182,0.50165 0.24448,0 0.44768,-0.0794 0.55563,-0.21273 0.127,-0.15557 0.17462,-0.36195 0.17462,-0.75247 v -1.39065 z m -0.46355,0.19685 c 0.2794,0 0.43815,0.23495 0.43815,0.65722 0,0.40323 -0.16193,0.63818 -0.43815,0.63818 -0.27305,0 -0.4318,-0.23813 -0.4318,-0.6477 0,-0.4064 0.15875,-0.6477 0.4318,-0.6477 z"
         id="path48110" />
    </g>
    <g
       aria-label="User Config"
       id="text2967"
       style="font-size:3.175px;text-align:center;text-anchor:middle;stroke-width:0.264583"
       transform="translate(24.15593,172.97018)">
      <path
         d="m 45.061475,4.3716533 v 1.6256 c 0,0.31115 -0.225425,0.50165 -0.5969,0.50165 -0.17145,0 -0.31115,-0.041275 -0.422275,-0.12065 -0.1143,-0.0889 -0.168275,-0.206375 -0.168275,-0.381 v -1.6256 H 43.57875 v 1.6256 c 0,0.4699 0.33655,0.762 0.885825,0.762 0.542925,0 0.892175,-0.29845 0.892175,-0.762 v -1.6256 z"
         id="path48113" />
      <path
         d="m 46.991875,5.4860783 c -0.0032,-0.327025 -0.219075,-0.511175 -0.60325,-0.511175 -0.38735,0 -0.638175,0.200025 -0.638175,0.508 0,0.26035 0.13335,0.384175 0.52705,0.479425 l 0.24765,0.060325 c 0.18415,0.04445 0.257175,0.111125 0.257175,0.2286 0,0.15875 -0.155575,0.263525 -0.38735,0.263525 -0.142875,0 -0.263525,-0.041275 -0.3302,-0.111125 -0.04127,-0.047625 -0.06032,-0.09525 -0.0762,-0.212725 h -0.2794 c 0.0127,0.384175 0.2286,0.568325 0.663575,0.568325 0.4191,0 0.6858,-0.206375 0.6858,-0.52705 0,-0.24765 -0.1397,-0.384175 -0.4699,-0.46355 l -0.254,-0.060325 c -0.2159,-0.0508 -0.307975,-0.12065 -0.307975,-0.238125 0,-0.155575 0.136525,-0.250825 0.352425,-0.250825 0.212725,0 0.327025,0.092075 0.333375,0.2667 z"
         id="path48115" />
      <path
         d="m 48.8175,5.9432783 c 0,-0.254 -0.01905,-0.4064 -0.06668,-0.530225 -0.10795,-0.27305 -0.36195,-0.43815 -0.6731,-0.43815 -0.46355,0 -0.762,0.352425 -0.762,0.9017 0,0.549275 0.28575,0.88265 0.75565,0.88265 0.381,0 0.644525,-0.2159 0.7112,-0.57785 h -0.2667 c -0.07303,0.219075 -0.22225,0.333375 -0.434975,0.333375 -0.168275,0 -0.31115,-0.0762 -0.40005,-0.2159 -0.0635,-0.09525 -0.08572,-0.1905 -0.0889,-0.3556 z m -1.2192,-0.2159 c 0.02222,-0.307975 0.20955,-0.508 0.47625,-0.508 0.269875,0 0.4572,0.20955 0.4572,0.508 z"
         id="path48117" />
      <path
         d="m 49.173099,5.0225283 v 1.6637 h 0.2667 v -0.8636 c 0.0032,-0.40005 0.168275,-0.57785 0.5334,-0.568325 v -0.269875 c -0.04445,-0.00635 -0.06985,-0.00953 -0.1016,-0.00953 -0.17145,0 -0.301625,0.1016 -0.454025,0.34925 v -0.301625 z"
         id="path48119" />
      <path
         d="m 44.17724,9.0579532 c -0.09207,-0.508 -0.384175,-0.7556499 -0.892175,-0.7556499 -0.31115,0 -0.561975,0.098425 -0.733425,0.2889249 -0.20955,0.2286 -0.32385,0.5588 -0.32385,0.93345 0,0.381 0.117475,0.7080248 0.333375,0.9334498 0.180975,0.18415 0.409575,0.269875 0.7112,0.269875 0.56515,0 0.88265,-0.3048 0.9525,-0.9175748 h -0.3048 c -0.0254,0.15875 -0.05715,0.2666998 -0.104775,0.3587748 -0.09525,0.1905 -0.2921,0.29845 -0.53975,0.29845 -0.460375,0 -0.752475,-0.3683 -0.752475,-0.9461498 0,-0.593725 0.276225,-0.95885 0.727075,-0.95885 0.187325,0 0.36195,0.053975 0.4572,0.14605 0.08572,0.079375 0.13335,0.174625 0.168275,0.34925 z"
         id="path48121" />
      <path
         d="m 45.224988,8.9436532 c -0.4699,0 -0.7493,0.333375 -0.7493,0.892175 0,0.5619748 0.2794,0.8921748 0.752475,0.8921748 0.4699,0 0.752475,-0.333375 0.752475,-0.8794748 0,-0.57785 -0.27305,-0.904875 -0.75565,-0.904875 z m 0.0032,0.244475 c 0.29845,0 0.47625,0.244475 0.47625,0.657225 0,0.3936998 -0.18415,0.6381748 -0.47625,0.6381748 -0.295275,0 -0.47625,-0.244475 -0.47625,-0.6476998 0,-0.403225 0.180975,-0.6477 0.47625,-0.6477 z"
         id="path48123" />
      <path
         d="m 46.348937,8.9912782 v 1.6636998 h 0.2667 V 9.7374032 c 0,-0.339725 0.1778,-0.561975 0.45085,-0.561975 0.20955,0 0.3429,0.127 0.3429,0.327025 v 1.1525248 h 0.263525 V 9.3976782 c 0,-0.276225 -0.206375,-0.454025 -0.52705,-0.454025 -0.24765,0 -0.4064,0.09525 -0.55245,0.327025 v -0.2794 z"
         id="path48125" />
      <path
         d="m 48.692086,8.9912782 h -0.276225 v -0.26035 c 0,-0.111125 0.06032,-0.168275 0.18415,-0.168275 0.02222,0 0.03175,0 0.09208,0.00318 V 8.3467533 c -0.06033,-0.0127 -0.09525,-0.015875 -0.149225,-0.015875 -0.244475,0 -0.390525,0.1396999 -0.390525,0.3778249 v 0.282575 h -0.22225 v 0.2159 h 0.22225 v 1.4477998 h 0.263525 V 9.2071782 h 0.276225 z m 0.5842,0 h -0.263525 v 1.6636998 h 0.263525 z m 0,-0.6508749 h -0.263525 v 0.3333749 h 0.263525 z"
         id="path48127" />
      <path
         d="m 50.762186,8.9912782 v 0.2413 c -0.13335,-0.200025 -0.2794,-0.288925 -0.48895,-0.288925 -0.403225,0 -0.682625,0.37465 -0.682625,0.90805 0,0.2793998 0.06667,0.4825998 0.20955,0.6508748 0.123825,0.14605 0.282575,0.225425 0.454025,0.225425 0.200025,0 0.3429,-0.0889 0.4826,-0.29845 v 0.08573 c 0,0.4445 -0.123825,0.6096 -0.454025,0.6096 -0.225425,0 -0.3429,-0.0889 -0.3683,-0.2794 h -0.269875 c 0.0254,0.307975 0.269875,0.50165 0.631825,0.50165 0.244475,0 0.447675,-0.07937 0.555625,-0.212725 0.127,-0.155575 0.174625,-0.36195 0.174625,-0.752475 V 8.9912782 Z m -0.46355,0.19685 c 0.2794,0 0.43815,0.23495 0.43815,0.657225 0,0.4032248 -0.161925,0.6381748 -0.43815,0.6381748 -0.27305,0 -0.4318,-0.238125 -0.4318,-0.6476998 0,-0.4064 0.15875,-0.6477 0.4318,-0.6477 z"
         id="path48129" />
    </g>
    <g
       aria-label="Filter, Process"
       id="text2977"
       style="font-size:3.175px;text-align:center;text-anchor:middle;stroke-width:0.264583"
       transform="translate(24.15593,172.97018)">
      <path
         d="m 68.203898,42.467403 h 1.1049 v -0.26035 h -1.1049 v -0.739775 h 1.2573 v -0.26035 h -1.552575 v 2.314575 h 0.295275 z"
         id="path48132" />
      <path
         d="m 70.007297,41.857803 h -0.263525 v 1.6637 h 0.263525 z m 0,-0.650875 h -0.2667 v 0.333375 h 0.2667 z"
         id="path48134" />
      <path
         d="m 70.718498,41.206928 h -0.2667 v 2.314575 h 0.2667 z"
         id="path48136" />
      <path
         d="m 71.747198,41.857803 h -0.27305 v -0.4572 h -0.263525 v 0.4572 h -0.225425 v 0.2159 h 0.225425 v 1.2573 c 0,0.17145 0.1143,0.263525 0.320675,0.263525 0.06985,0 0.127,-0.0063 0.2159,-0.02222 v -0.22225 c -0.0381,0.0095 -0.07303,0.0127 -0.127,0.0127 -0.1143,0 -0.14605,-0.03175 -0.14605,-0.149225 v -1.139825 h 0.27305 z"
         id="path48138" />
      <path
         d="m 73.407723,42.778553 c 0,-0.254 -0.01905,-0.4064 -0.06668,-0.530225 -0.10795,-0.27305 -0.36195,-0.43815 -0.6731,-0.43815 -0.46355,0 -0.762,0.352425 -0.762,0.9017 0,0.549275 0.28575,0.88265 0.75565,0.88265 0.381,0 0.644525,-0.2159 0.7112,-0.57785 h -0.2667 c -0.07303,0.219075 -0.22225,0.333375 -0.434975,0.333375 -0.168275,0 -0.31115,-0.0762 -0.40005,-0.2159 -0.0635,-0.09525 -0.08572,-0.1905 -0.0889,-0.3556 z m -1.2192,-0.2159 c 0.02222,-0.307975 0.20955,-0.508 0.47625,-0.508 0.269875,0 0.4572,0.20955 0.4572,0.508 z"
         id="path48140" />
      <path
         d="m 73.763322,41.857803 v 1.6637 h 0.2667 v -0.8636 c 0.0032,-0.40005 0.168275,-0.57785 0.5334,-0.568325 v -0.269875 c -0.04445,-0.0063 -0.06985,-0.0095 -0.1016,-0.0095 -0.17145,0 -0.301625,0.1016 -0.454025,0.34925 v -0.301625 z"
         id="path48142" />
      <path
         d="m 74.655498,43.191303 v 0.3302 h 0.1905 v 0.05715 c 0,0.219075 -0.04127,0.282575 -0.1905,0.288925 v 0.12065 c 0.20955,0.0063 0.333375,-0.14605 0.333375,-0.415925 v -0.381 z"
         id="path48144" />
      <path
         d="m 66.295722,46.509178 h 0.727075 c 0.180975,0 0.32385,-0.05398 0.447675,-0.1651 0.1397,-0.127 0.200025,-0.276225 0.200025,-0.48895 0,-0.434975 -0.257175,-0.67945 -0.714375,-0.67945 h -0.955675 v 2.314575 h 0.295275 z m 0,-0.26035 v -0.8128 h 0.61595 c 0.282575,0 0.45085,0.1524 0.45085,0.4064 0,0.254 -0.168275,0.4064 -0.45085,0.4064 z"
         id="path48146" />
      <path
         d="m 68.048322,45.826553 v 1.6637 h 0.2667 v -0.8636 c 0.0032,-0.40005 0.168275,-0.57785 0.5334,-0.568325 v -0.269875 c -0.04445,-0.0063 -0.06985,-0.0095 -0.1016,-0.0095 -0.17145,0 -0.301625,0.1016 -0.454025,0.34925 v -0.301625 z"
         id="path48148" />
      <path
         d="m 69.73107,45.778928 c -0.4699,0 -0.7493,0.333375 -0.7493,0.892175 0,0.561975 0.2794,0.892175 0.752475,0.892175 0.4699,0 0.752475,-0.333375 0.752475,-0.879475 0,-0.57785 -0.27305,-0.904875 -0.75565,-0.904875 z m 0.0032,0.244475 c 0.29845,0 0.47625,0.244475 0.47625,0.657225 0,0.3937 -0.18415,0.638175 -0.47625,0.638175 -0.295275,0 -0.47625,-0.244475 -0.47625,-0.6477 0,-0.403225 0.180975,-0.6477 0.47625,-0.6477 z"
         id="path48150" />
      <path
         d="m 72.128195,46.385353 c -0.0127,-0.161925 -0.04763,-0.2667 -0.111125,-0.358775 -0.1143,-0.155575 -0.314325,-0.24765 -0.5461,-0.24765 -0.45085,0 -0.739775,0.3556 -0.739775,0.90805 0,0.536575 0.28575,0.8763 0.7366,0.8763 0.396875,0 0.6477,-0.238125 0.67945,-0.644525 h -0.2667 c -0.04445,0.2667 -0.180975,0.40005 -0.4064,0.40005 -0.2921,0 -0.466725,-0.238125 -0.466725,-0.631825 0,-0.415925 0.17145,-0.663575 0.460375,-0.663575 0.22225,0 0.36195,0.130175 0.3937,0.36195 z"
         id="path48152" />
      <path
         d="m 73.868096,46.747303 c 0,-0.254 -0.01905,-0.4064 -0.06667,-0.530225 -0.10795,-0.27305 -0.36195,-0.43815 -0.6731,-0.43815 -0.46355,0 -0.762,0.352425 -0.762,0.9017 0,0.549275 0.28575,0.88265 0.75565,0.88265 0.381,0 0.644525,-0.2159 0.7112,-0.57785 h -0.2667 c -0.07303,0.219075 -0.22225,0.333375 -0.434975,0.333375 -0.168275,0 -0.31115,-0.0762 -0.40005,-0.2159 -0.0635,-0.09525 -0.08573,-0.1905 -0.0889,-0.3556 z m -1.2192,-0.2159 c 0.02223,-0.307975 0.20955,-0.508 0.47625,-0.508 0.269875,0 0.4572,0.20955 0.4572,0.508 z"
         id="path48154" />
      <path
         d="m 75.382571,46.290103 c -0.0032,-0.327025 -0.219075,-0.511175 -0.60325,-0.511175 -0.387349,0 -0.638174,0.200025 -0.638174,0.508 0,0.26035 0.13335,0.384175 0.52705,0.479425 l 0.247649,0.06032 c 0.18415,0.04445 0.257175,0.111125 0.257175,0.2286 0,0.15875 -0.155575,0.263525 -0.38735,0.263525 -0.142874,0 -0.263524,-0.04128 -0.330199,-0.111125 -0.04127,-0.04763 -0.06033,-0.09525 -0.0762,-0.212725 h -0.2794 c 0.0127,0.384175 0.2286,0.568325 0.663574,0.568325 0.4191,0 0.6858,-0.206375 0.6858,-0.52705 0,-0.24765 -0.1397,-0.384175 -0.4699,-0.46355 l -0.254,-0.06033 c -0.215899,-0.0508 -0.307974,-0.12065 -0.307974,-0.238125 0,-0.155575 0.136525,-0.250825 0.352424,-0.250825 0.212725,0 0.327025,0.09208 0.333375,0.2667 z"
         id="path48156" />
      <path
         d="m 76.976424,46.290103 c -0.0032,-0.327025 -0.219075,-0.511175 -0.60325,-0.511175 -0.38735,0 -0.638175,0.200025 -0.638175,0.508 0,0.26035 0.13335,0.384175 0.52705,0.479425 l 0.24765,0.06032 c 0.18415,0.04445 0.257175,0.111125 0.257175,0.2286 0,0.15875 -0.155575,0.263525 -0.38735,0.263525 -0.142875,0 -0.263525,-0.04128 -0.3302,-0.111125 -0.04127,-0.04763 -0.06032,-0.09525 -0.0762,-0.212725 h -0.2794 c 0.0127,0.384175 0.2286,0.568325 0.663575,0.568325 0.4191,0 0.6858,-0.206375 0.6858,-0.52705 0,-0.24765 -0.1397,-0.384175 -0.4699,-0.46355 l -0.254,-0.06033 c -0.2159,-0.0508 -0.307975,-0.12065 -0.307975,-0.238125 0,-0.155575 0.136525,-0.250825 0.352425,-0.250825 0.212725,0 0.327025,0.09208 0.333375,0.2667 z"
         id="path48158" />
    </g>
    <path
       d="m 31.079609,194.89385 c 0,-2.16801 0.332507,-5.63682 1.726447,-6.01619 0.06395,-0.0542 0.1151,-0.27102 0.1151,-0.59621 0,-0.59622 -0.102306,-0.59622 -0.242983,-0.59622 -1.278851,0 -2.442602,2.76424 -2.455385,6.77503 v 12.35762 c 0,2.1138 0,3.84822 -0.511543,5.63682 -0.447596,1.5718 -0.933562,1.6802 -1.214905,1.73438 -0.06394,0.0542 -0.115097,0.27102 -0.115097,0.59622 0,0.54199 0.07673,0.54199 0.20461,0.59616 0.844049,0.21685 1.457888,2.16802 1.598565,4.82381 0.03837,0.59622 0.03837,0.70462 0.03837,2.65584 v 10.7316 c 0,2.27641 0,4.01079 0.613838,6.07041 0.49876,1.62602 1.342798,2.22219 1.841547,2.22219 0.140677,0 0.242983,0 0.242983,-0.59617 0,-0.54204 -0.07673,-0.54204 -0.204623,-0.59621 -0.805669,-0.2168 -1.432301,-1.95122 -1.598554,-4.71541 -0.03837,-0.48782 -0.03837,-0.59622 -0.03837,-2.54739 v -11.38204 c 0,-2.49321 -0.102306,-3.41462 -0.511532,-5.149 -0.26856,-1.13821 -0.639426,-1.6802 -0.997509,-2.11379 1.048662,-1.24661 1.509041,-3.73983 1.509041,-6.88343 z"
       id="use8827"
       style="stroke:none;stroke-width:0;stroke-dasharray:none;stroke-opacity:1;paint-order:fill markers stroke;image-rendering:auto" />
    <path
       d="m 31.061389,246.97894 c 0,-1.22618 0.332507,-3.18807 1.726447,-3.40263 0.06395,-0.0307 0.1151,-0.15329 0.1151,-0.33721 0,-0.33721 -0.102306,-0.33721 -0.242983,-0.33721 -1.278851,0 -2.442602,1.5634 -2.455385,3.83182 v 6.98922 c 0,1.19552 0,2.17648 -0.511543,3.18807 -0.447596,0.88898 -0.933562,0.95029 -1.214905,0.98093 -0.06394,0.0307 -0.115097,0.15329 -0.115097,0.33721 0,0.30654 0.07673,0.30654 0.20461,0.33718 0.84405,0.12264 1.457888,1.22619 1.598565,2.72825 0.03837,0.33721 0.03837,0.39852 0.03837,1.50209 v 6.06957 c 0,1.2875 0,2.26843 0.613838,3.43331 0.49876,0.91964 1.342798,1.25682 1.841547,1.25682 0.140677,0 0.242983,0 0.242983,-0.33718 0,-0.30656 -0.07673,-0.30656 -0.204623,-0.33721 -0.805669,-0.12261 -1.432301,-1.10357 -1.598554,-2.66693 -0.03837,-0.2759 -0.03837,-0.33721 -0.03837,-1.44076 v -6.43745 c 0,-1.41011 -0.102306,-1.93124 -0.511532,-2.91217 -0.268559,-0.64375 -0.639425,-0.95029 -0.997509,-1.19552 1.048662,-0.70505 1.509041,-2.11517 1.509041,-3.89313 z"
       id="use8827-2"
       style="stroke:none;stroke-width:0;stroke-dasharray:none;stroke-opacity:1;paint-order:fill markers stroke;image-rendering:auto" />
    <path
       d="m 60.900039,288.71076 c 1.44193,0 3.748999,-0.33251 4.001318,-1.72645 0.03605,-0.0639 0.180253,-0.1151 0.396537,-0.1151 0.396537,0 0.396537,0.10231 0.396537,0.24299 0,1.27885 -1.838467,2.4426 -4.506012,2.45538 h -8.21895 c -1.405867,0 -2.559417,0 -3.749,0.51154 -1.045392,0.4476 -1.117487,0.93357 -1.15352,1.21491 -0.03606,0.0639 -0.180252,0.1151 -0.396537,0.1151 -0.360475,0 -0.360475,-0.0767 -0.396508,-0.20461 -0.144219,-0.84405 -1.441929,-1.45789 -3.208272,-1.59857 -0.396537,-0.0384 -0.468632,-0.0384 -1.766372,-0.0384 h -7.137495 c -1.514025,0 -2.667545,0 -4.037379,-0.61384 -1.081455,-0.49876 -1.477963,-1.34279 -1.477963,-1.84154 0,-0.14068 0,-0.24299 0.396508,-0.24299 0.360505,0 0.360505,0.0767 0.396537,0.20463 0.14419,0.80567 1.29774,1.4323 3.136177,1.59855 0.324443,0.0384 0.396538,0.0384 1.694248,0.0384 h 7.570094 c 1.658215,0 2.271038,0.10231 3.424558,0.51153 0.757012,0.26856 1.117487,0.63943 1.405867,0.99751 0.829107,-1.04866 2.487322,-1.50904 4.578107,-1.50904 z"
       id="use8827-2-7"
       style="stroke:none;stroke-width:0;stroke-dasharray:none;stroke-opacity:1;paint-order:fill markers stroke;image-rendering:auto" />
    <path
       d="m 112.80033,219.03378 c 0,1.44331 -0.33251,3.75258 -1.72645,4.00514 -0.064,0.0361 -0.1151,0.18042 -0.1151,0.39691 0,0.39692 0.10231,0.39692 0.24299,0.39692 1.27885,0 2.4426,-1.84022 2.45538,-4.51031 v -8.2268 c 0,-1.40721 0,-2.56186 0.51155,-3.75258 0.44759,-1.04639 0.93356,-1.11855 1.2149,-1.15462 0.0639,-0.0361 0.1151,-0.18042 0.1151,-0.39691 0,-0.36082 -0.0767,-0.36082 -0.20461,-0.39689 -0.84405,-0.14436 -1.45789,-1.44331 -1.59857,-3.21133 -0.0384,-0.39692 -0.0384,-0.46908 -0.0384,-1.76806 v -7.14431 c 0,-1.51547 0,-2.67009 -0.61383,-4.04123 -0.49876,-1.08249 -1.3428,-1.47937 -1.84155,-1.47937 -0.14068,0 -0.24298,0 -0.24298,0.39688 0,0.36085 0.0767,0.36085 0.20462,0.39692 0.80567,0.14432 1.4323,1.29898 1.59855,3.13917 0.0384,0.32475 0.0384,0.39691 0.0384,1.69586 v 7.57732 c 0,1.6598 0.10231,2.27321 0.51153,3.42783 0.26856,0.75773 0.63943,1.11855 0.99751,1.40721 -1.04866,0.8299 -1.50904,2.48969 -1.50904,4.58247 z"
       id="use8827-9"
       style="stroke:none;stroke-width:0;stroke-dasharray:none;stroke-opacity:1;paint-order:fill markers stroke;image-rendering:auto" />
  </g>
</svg>
